<?xml-stylesheet type="text/css" href="../svg.css" ?>

<svg xmlns="http://www.w3.org/2000/svg" viewBox="0 0 459.73 405.63"><defs><style>.cls-1{stroke:#fff;stroke-linejoin:round;stroke-width:2px;}</style></defs><g id="Calque_2" data-name="Calque 2"><g id="oracle"><g id="lines"><path class="cls-1" d="M270,331.38a7.63,7.63,0,0,0-.16,1.77c-.28,4.8,1.12,9.37,1.89,14,.91,5.61,1.85,11.23,2.45,16.89s.82,11.5,1.13,17.25a6,6,0,0,1-1.62,5c.07-1.28.13-2.56.19-3.94-6.13.69-12.07-.06-18-.83l0-.5h18.31c-.38-4.77-.78-9.68-1.19-14.76-5.7,1.57-11.26,1.33-16.84.73l-.08-.49a10.12,10.12,0,0,1,1.58-.39c4.58-.36,9.16-.73,13.75-1,1.12-.07,1.57-.32,1.39-1.51-.74-4.8-1.37-9.63-2.16-14.43-.93-5.59-2.78-11.05-2.21-17.12-5.46.84-10.59,0-15.71-1.09,2.53-1.2,5.17-.6,7.75-.62s5.2.18,8,.29c.23-4.85.46-9.73.69-14.49l-13.57-.57V315l13.53-.52q.74-6.45,1.55-13.56c-5.07,1-9.77.09-14.47-.89,2.34-.76,4.72-.41,7.07-.35s4.76.19,7.32.29c.08-.55.17-1.25.26-2,.74-5.4,1.42-10.82,2.24-16.21a5.43,5.43,0,0,1,4.33-4.5,31.15,31.15,0,0,1,6.71-1.27,89.37,89.37,0,0,0,17.31-2.29,55.92,55.92,0,0,1,9.41-1.18c6.73-.39,13.48-.53,20.22-.88a28.78,28.78,0,0,0,4.73-.9c3.89-.86,7.71-2.11,11.81-1.28a4,4,0,0,0,2.53-.88c2.19-1.5,4.31-3.1,6.42-4.72,1.85-1.43,3.6-3,5.48-4.39a48.1,48.1,0,0,0,9.46-8.79c2-2.53,4.05-5,6.4-7.87H366.41v-.56c2.21-.15,4.42-.33,6.64-.44,1.69-.08,3.4,0,5.09-.13a2.4,2.4,0,0,0,1.38-.65,26.94,26.94,0,0,0,2.69-2.76c1.36-1.66,2.63-3.38,3.94-5.09s2.4-3.24,3.66-4.8c1.76-2.19,3.66-4.26,5.34-6.5a4.36,4.36,0,0,0,.87-2.79c-.58-4.65,1.11-8.11,4.66-11.09,2.26-1.89,4-4.37,6.32-6.94H395.2l-.07-.49a6.06,6.06,0,0,1,1.39-.44c3.61-.2,7.22-.34,10.83-.55a1.67,1.67,0,0,0,1.08-.62,29.71,29.71,0,0,0,6.12-21.31,13.34,13.34,0,0,0-.38-1.7c-2.51,1-3.43.86-4.19-.41l3.91-.45c-1.49-2.63-.43-5.29-.34-7.95a3.23,3.23,0,0,0-.13-1.63,6,6,0,0,0-1.83-2.19,2.24,2.24,0,0,0-2.86.69c-1.2,1.45-2.32,3-3.43,4.49a23.59,23.59,0,0,1-7.1,6.44,13.2,13.2,0,0,1-4.42,1.25,1.57,1.57,0,0,1-1.85-1.46,33.3,33.3,0,0,1-.56-4.33,20.22,20.22,0,0,0-2.34-9.12,7.11,7.11,0,0,0-1.61-1.52,7.19,7.19,0,0,0-1.17,1.89,50.19,50.19,0,0,1-4.59,12.65,41.5,41.5,0,0,0-4.44,13.56,21.14,21.14,0,0,0,.45,7.07c.69,3.53.29,4.08-2.65,6a38.76,38.76,0,0,0-6.83,6.11,52,52,0,0,0-4.54,6.06,17.84,17.84,0,0,1-6,5.14,57.55,57.55,0,0,0-7.34,5.05c-2.63,2.16-5.22,4.19-8.85,4.25a5.71,5.71,0,0,0-4.52,2.53,2.67,2.67,0,0,1-1.84.88,35.75,35.75,0,0,1-4.26-.21,3.59,3.59,0,0,0-2.67.6,6.37,6.37,0,0,1-3.13.78,87,87,0,0,1-17.45-.14,19.68,19.68,0,0,0-4.13.07c-7.91.77-15.78.07-23.66-.48-1.73-.12-3.48,0-5.21-.16a28.64,28.64,0,0,1-4.7-.78c-3.54-.93-7.05-2-10.59-3a155.86,155.86,0,0,1-19.12-6.6,29.79,29.79,0,0,0-9.52-2.55,16.19,16.19,0,0,1-4.39-1.11,4.17,4.17,0,0,1-3-3.6c-.33-2.87-.77-5.73-1-8.6-.14-2.09,0-4.19,2.48-5.13.38-.14.66-.64.89-1,1.89-3.31,3.91-6.55,5.58-10a61.3,61.3,0,0,0,2.37-6.88c.31-.89.77-1.72,1.28-2.81a19.88,19.88,0,0,1-7.92-.32l0-.44,2.47-.26c1.69-.16,3.39-.28,5.07-.51a1.23,1.23,0,0,0,.84-.8c.24-2.87.49-5.75.49-8.62a3.69,3.69,0,0,0-1.22-2.49,6.17,6.17,0,0,1-2-4.76c-.13-2-.41-3.92-.7-5.87a10.9,10.9,0,0,0-3.27-5.78,23.92,23.92,0,0,1-2.45-3.28c-1.22-1.88-2.29-3.87-3.57-5.72-2-2.89-5-4.24-8.32-4.93s-6.46-1.41-9.72-2a22.72,22.72,0,0,0-10.9.6,14.62,14.62,0,0,0-4.56,2.71,47.54,47.54,0,0,0-4.89,4.84,28.74,28.74,0,0,0-2.15,2.84,11.69,11.69,0,0,1-.54,1,4.81,4.81,0,0,0-1,2.5c-.31,2.46-.56,4.92-.88,7.38-.4,3.12-.78,6.25-1.33,9.36a3.61,3.61,0,0,1-1.38,1.95,3.51,3.51,0,0,0-1.28,4.68c.54,1.31.78,2.74,1.23,4.09a13,13,0,0,0,3.29,5.8,5.19,5.19,0,0,1,1.35,2.49,15.82,15.82,0,0,0,2.83,6.21,7.5,7.5,0,0,1,1,1.68,20.41,20.41,0,0,0,3.41,5.9c1.58,1.79,1.43,4.2,1.69,6.42.46,3.85-.54,7.47-1.67,11.08a3.6,3.6,0,0,1-2.85,2.32c-3.44,1-6.83,2.34-10.34,2.84-4,.57-7.29,2.78-11,3.88-2.76.82-5.4,2-8.1,3.08a2.52,2.52,0,0,0-.62.29c-2.58,2.25-5.73,2.19-8.87,2.19-.46,0-.92,0-1.37,0-2.16.17-2.14.44-2.3.47a2.81,2.81,0,0,1-.56.25c-.15,0-.3,0-.43,0-.4.07-.36.12-.62.15a31.86,31.86,0,0,1-4.66.5,100.34,100.34,0,0,0-22.87,2,70.09,70.09,0,0,1-17.72.88c-1.4-.09-3,0-3.83-1.53-.07-.13-.33-.14-.5-.2a195.72,195.72,0,0,1-22.51-10c-5.27-2.75-10.73-5.25-16.66-6.42a5.83,5.83,0,0,1-4.3-2.72,10.78,10.78,0,0,1,1.67.21,117.61,117.61,0,0,1,17.2,6.21c2.83,1.32,5.51,2.94,8.35,4.23,5.19,2.35,10.5,4.42,15.65,6.85,4.3,2,8.81,2.18,13.32,1.77,5.89-.54,11.71-1.74,17.6-2.29,4.79-.44,9.62-.31,14.43-.49a33.79,33.79,0,0,0,4.37-.5c.25,0,.58-.56.62-.89.25-2.42.3-4.87.69-7.26.41-2.6,1.12-5.14,1.7-7.71l.6.1q-.75,7.53-1.51,15c2.74-.13,5.29-.19,7.84-.39a4.78,4.78,0,0,0,2.19-.75c3.84-2.56,8.22-3.8,12.54-5.22a38.27,38.27,0,0,0,4-1.82,11.17,11.17,0,0,1,1.63-.71c3.8-1,7.62-2,11.43-2.94a6.69,6.69,0,0,1,1.18-.37c2.48-.12,3.22-1.68,3.82-3.87a24.61,24.61,0,0,0,.44-11.31,13.18,13.18,0,0,0-1.53-3.47c-.6-1.11-1.36-2.14-2-3.25a32.61,32.61,0,0,0-1.52-3.08,17.52,17.52,0,0,1-3.25-7.22,2.49,2.49,0,0,0-.65-1.34c-3-2.73-3.77-6.53-4.88-10.16-.13-.44-.2-.9-.36-1.33a4,4,0,0,1,1.42-5,4.64,4.64,0,0,0,1.57-2.88c1.16-4.3,1-8.73,1.55-13.09a16.35,16.35,0,0,1,4.49-9.3c1.52-1.66,3.19-3.18,4.75-4.8,3.32-3.44,7.61-4,12-4.15s8.65,1,12.91,1.92c1.17.25,2.32.54,3.48.84a12.36,12.36,0,0,1,7.2,4.78c1.23,1.71,2.25,3.57,3.42,5.32a25.45,25.45,0,0,0,2.92,3.94c2.63,2.64,3.61,5.9,4,9.45a22.76,22.76,0,0,1,.13,2.48,5.19,5.19,0,0,0,1.75,4.41,5,5,0,0,1,1.43,2.87,27.12,27.12,0,0,1-1.64,13.39c-.73,2-1.25,4-2.14,5.94-1.71,3.69-3.58,7.33-5.46,10.94-.78,1.5-1.59,3-3.3,3.76-.31.13-.54.74-.59,1.15-.49,3.7.22,7.33.9,10.93.14.74,1.3,1.49,2.16,1.86A10.84,10.84,0,0,0,231,217c4.22.11,7.94,1.84,11.68,3.47a123.37,123.37,0,0,0,23.75,7.4c1.11.23,2.17.75,3.28,1a57.34,57.34,0,0,0,7,1.45c2.58.3,5.2.21,7.81.31,3.62.14,7.25.38,10.87.41,2.75,0,5.51-.33,8.26-.28,4,.07,8.07.49,12.1.49,3.34,0,6.68-.38,10-.61.22,0,.58-.06.62-.19.54-1.52,1.84-1.11,2.9-1.11a43.18,43.18,0,0,1,4.54.26,2.36,2.36,0,0,0,2.52-1.21c.36-.57.9-1,1-1.45-2.6-7.25-5.07-14.55-7.81-21.74-4.38-11.5-9-22.9-13.38-34.41-2.4-6.35-4.47-12.83-6.68-19.25-.11-.33-.15-.7-.23-1.05l.36-.14c1.23,2.67,2.62,5.28,3.66,8q9.46,25.07,18.77,50.18c2.2,5.94,4.13,12,6.17,17.92a47.4,47.4,0,0,0,5.88-1.17,10.66,10.66,0,0,0,3.73-2.22,55.08,55.08,0,0,1,10.43-7.37c1.69-.93,3-2.67,4.29-4.18,2.51-2.85,4.78-5.93,7.41-8.67a31.74,31.74,0,0,1,5.17-3.8c.84-.57,1.68-1,1.25-2.25-2.26-6.39-.49-12.43,1.68-18.39a52.69,52.69,0,0,1,2.87-6.26,41.18,41.18,0,0,0,3.85-10.87,1.88,1.88,0,0,1,.29-.91c.73-.76,1.4-1.79,2.31-2.09,1.12-.37,2.09.56,2.66,1.55a20,20,0,0,1,2.9,9.52,44.63,44.63,0,0,0,.33,4.63,1.33,1.33,0,0,0,1.08.73,11.82,11.82,0,0,0,3.18-1.24,27.24,27.24,0,0,0,8.17-7.69,22.21,22.21,0,0,1,2.05-2.59,4,4,0,0,1,4.4-1.14,3.84,3.84,0,0,1,2.7,3.51c.12,1.22-.12,2.47-.09,3.7a16.65,16.65,0,0,0,.39,4.71,19,19,0,0,1,1,6.19,40.88,40.88,0,0,1-1.76,11.8c-1.34,4.52-4.3,8.07-7.35,11.52-2.52,2.86-5.14,5.63-7.74,8.4a4.46,4.46,0,0,0-1.47,3.72c.61,4.29-1.11,7.61-3.93,10.68s-5.73,6.22-7.57,10.11a6.35,6.35,0,0,1-1.09,1.41c-4,4.6-8.13,9.12-12,13.82a55.33,55.33,0,0,1-10,9.24c-1.77,1.3-3.44,2.75-5.19,4.09-2.18,1.68-4.34,3.38-6.59,4.95a8.94,8.94,0,0,1-6.16,1.33,16.18,16.18,0,0,0-6.1.75c-5.55,1.79-11.25,1.38-16.92,1.75-8.32.54-16.68.53-24.88,2.67-3.86,1-8,1-12,1.31-2.66.2-5.33.28-7.78,1.45a6.22,6.22,0,0,0-3.3,4.68c-.71,3.64-1.25,7.33-1.65,11-.66,5.93-1.23,11.88-1.67,17.83-.37,5.08-.51,10.17-.76,15.26a17.8,17.8,0,0,0-.11,1.92A9,9,0,0,0,270,331.38Z"/><path class="cls-1" d="M125.35,344.49c2.64-10.63,5.61-21.2,7.83-31.92s3.7-21.61,5.54-32.58c-3.2-.82-6.33-1.67-9.48-2.43-5.13-1.24-10.28-2.38-15.41-3.63-4.41-1.07-8.8-2.26-13.21-3.34a15.23,15.23,0,0,0-3.92-.65c-5.33.16-10.35-1.16-15.39-2.68a82.85,82.85,0,0,1-15.5-6c-2.66-1.42-5.6-2.3-8.39-3.5a18.71,18.71,0,0,1-6.79-5.07c-.72-.83-1.47-1.64-2.24-2.43A9.23,9.23,0,0,0,41,247.44c-.55,0-1.1.07-1.65.06a3,3,0,0,1-3.12-3c-.2-3.12-.38-6.24-.56-9.35-.1-1.68-2-3.36-4-4.07A92.17,92.17,0,0,1,21.06,227a31.48,31.48,0,0,1-7.06-5c-1.36-1.24-2.09-3.16-3.14-4.75a4.75,4.75,0,0,0-1.35-1.58A4.93,4.93,0,0,1,6.74,211c0-1.06,0-2.12,0-3.17a6,6,0,0,0-1.49-4.29c-1.58-1.76-1.59-4-1.16-6.15a6.3,6.3,0,0,0-.67-4.75,21.46,21.46,0,0,1-1.07-2.81,1.42,1.42,0,0,0-.6-.74c-1-.48-.87-1.16-.25-1.75s1.57-1.41,2.79-.79c2.91,1.47,5.88,2.81,8.75,4.35,2.09,1.13,4.05,2.5,6.08,3.74a21.21,21.21,0,0,0,2.87,1.6,2.92,2.92,0,0,0,2,.22,8.19,8.19,0,0,0,2.79-1.79c.17-.18-.6-1.35-1-2a27.58,27.58,0,0,1-2-3.43c-.88-2.27.51-4,2.87-3.48,3,.68,5.89,1.89,7.54,4.81A24.69,24.69,0,0,0,38.54,196a30.55,30.55,0,0,1,7,11.12A29,29,0,0,0,47.78,211c.19.33,4.21,3.82,2.77,3.38-.7.54-3.47-2.21-3.66-2.46a12.43,12.43,0,0,1-2.38-3.44,32.5,32.5,0,0,0-4.94-9c-.86-1.16-2-2.1-3-3.2a16.62,16.62,0,0,1-2.81-3.5c-1.39-2.85-3.81-4.27-6.55-5.32a5.55,5.55,0,0,0-2.06.06,5,5,0,0,0,.26,1.94c.8,1.33,1.85,2.51,2.69,3.82a7.6,7.6,0,0,1,1.1,2.51,1.93,1.93,0,0,1-.7,1.48c-.16.15-.86-.29-1.48-.53-2.74,2.28-5.71,1.69-8.32-.5-3.71-3.11-8.25-4.57-12.42-6.76-.77-.4-1.54-.78-2.33-1.18a2.51,2.51,0,0,0,.14,2.93,8.55,8.55,0,0,1,1.25,6.93,5.84,5.84,0,0,0,1.49,5.36A6.58,6.58,0,0,1,8,206.69,28.94,28.94,0,0,1,8.16,211a3.34,3.34,0,0,0,2,3.3A4.5,4.5,0,0,1,12.5,217a11.84,11.84,0,0,0,2.78,4.15,39.14,39.14,0,0,0,16.51,8.5,6.72,6.72,0,0,1,5.51,6.7c.12,2.61.28,5.22.44,7.84.08,1.37.67,1.94,2.16,1.81a11.17,11.17,0,0,1,10.54,4.47c3.31,4.35,8,6.51,12.9,8.3A33,33,0,0,1,68.5,261c4.28,2.46,9.06,3.49,13.66,5a50.65,50.65,0,0,0,15,2.54c2.42.05,4.81,1,7.22,1.62,8.39,2,16.79,4,25.17,6.06,3.83,1,7.6,2.1,11.4,3.17a1.6,1.6,0,0,1,.94.71h-2.06C137.11,302.13,132.88,323.68,125.35,344.49Z"/><path class="cls-1" d="M148.19,192.13c.57-3.34,1.2-6.67,1.71-10,1.34-8.86,2.67-17.71,3.92-26.58,2.17-15.41,4.09-30.86,6.49-46.23,1.39-8.93,3.44-17.76,5.29-26.61,3.94-18.87,7.69-37.78,10.62-56.85a8.29,8.29,0,0,1,.46-1.41l.62,0a11.29,11.29,0,0,1,.15,2.38c-.55,3.77-1.06,7.55-1.8,11.28-3.71,18.64-7.32,37.3-11.28,55.89-3.14,14.71-4.93,29.6-6.78,44.5-1.5,12.07-3.28,24.11-5.16,36.13-.84,5.39-2.24,10.68-3.41,16a12.54,12.54,0,0,1-.52,1.53Z"/><path class="cls-1" d="M57.22,404.55c.33-2.51.52-5.05,1-7.52a248.22,248.22,0,0,1,8-28.21,253.4,253.4,0,0,0,7.54-29.46A307.4,307.4,0,0,1,84,302.93c2.89-8.47,3.91-12.16,6.6-20.7a3.77,3.77,0,0,1,.38-1,2.44,2.44,0,0,1,.92-.86c.12-.06.67.39.71.66a2.7,2.7,0,0,1-.25,1.33c-.18.43-.6.77-.73,1.2-4.22,13.35-7,21.79-11.09,35.16-1.43,4.61-2.68,9.27-3.85,13.94-.32,1.28.19,2.77-.14,4-1,4.14-2.54,8.16-3.42,12.33-2.74,13.07-7.69,25.49-11,38.38q-2.07,8.07-4.15,16.14c-.1.37-.27.73-.4,1.1Z"/><path class="cls-1" d="M113.55,103.21a88.08,88.08,0,0,1-2.31,8.58c-3.64,9.66-7.34,19.3-11.27,28.85q-6.69,16.31-13.84,32.43c-5.59,12.64-11.4,25.18-17.11,37.77-.41.91-.71,1.88-1.12,2.81a14,14,0,0,1-.83,1.46l-.38-.1a8.93,8.93,0,0,1,0-2.07,19.2,19.2,0,0,1,1.11-3.11c5.42-12.11,10.92-24.18,16.28-36.32,5.27-11.92,10.52-23.86,15.56-35.89,4.16-10,8-20,12-30.06.57-1.45.92-3,1.37-4.46Z"/><path class="cls-1" d="M248.19,1,249,2.37a300.57,300.57,0,0,1,19.53,42.5c4.73,12.59,9.28,25.25,14.37,37.7,5.21,12.74,11,25.24,16.5,37.87.82,1.87,1.5,3.81,2.25,5.71l-.37.18c-.76-1.43-1.56-2.84-2.25-4.3-7.4-15.65-14.63-31.37-20.78-47.56-4.91-12.92-9.6-25.91-14.78-38.72-3.51-8.67-7.71-17.06-11.59-25.58-1.18-2.58-2.33-5.19-3.48-7.79a13.19,13.19,0,0,1-.4-1.26Z"/><path class="cls-1" d="M323,378.24a68.7,68.7,0,0,1-8.57-14.75c-4-8.92-6.72-18.25-9.24-27.66-2.19-8.15-4.22-16.35-6.37-24.52q-4.1-15.44-8.27-30.85c-.25-.93-.67-1.82-.91-2.75a1.61,1.61,0,0,1,.23-1.12.88.88,0,0,1,.85-.09c.21.21.23.63.33,1s.12.53.2.79c2.24,7.9,4.6,15.78,6.72,23.71,3.75,14,7.31,28,11,42a142.7,142.7,0,0,0,11.36,28.77C321.28,374.51,322.1,376.39,323,378.24Z"/><path class="cls-1" d="M142.69,281.82a2,2,0,0,1,2.93.08,9.47,9.47,0,0,1,1.71,2.13c1.6,2.79,3.17,5.6,4.66,8.45,2.57,4.94,3.06,10.34,3.34,15.77.21,4.22.18,8.46.65,12.64.42,3.73,1.66,7.37,2,11.1.61,6.11,1,12.26,1.12,18.41.15,8.67-.07,17.36-.1,26,0,2.43.13,4.86.19,7.3,0,1.21,0,2.42,0,3.63l-.66,0a51.59,51.59,0,0,1-.68-5.92q0-12.95.11-25.9a148.39,148.39,0,0,0-3.13-34.07c-.91-4-.63-8.3-.78-12.47-.27-7.07-1.32-13.9-5.43-19.92-.61-.91-1-1.95-1.56-2.91C146.06,284.34,145.35,282.16,142.69,281.82Z"/><path class="cls-1" d="M402.74,215.71a18.35,18.35,0,0,1,2.35,2.22,67.19,67.19,0,0,1,4,5.76c4.42,7.25,10.12,13.51,15.49,20q14.28,17.32,28.28,34.88c2.19,2.74,3.76,6,5.61,9a4.56,4.56,0,0,1,.26.79,6.05,6.05,0,0,1-.78-.68c-11.74-16.83-25.34-32.16-38.71-47.66a138.1,138.1,0,0,1-14.05-19.54c-.63-1.06-1.44-2-2.14-3a13.57,13.57,0,0,1-.74-1.35Z"/><path class="cls-1" d="M83.51,80.28A45.23,45.23,0,0,1,81,85.08Q73.36,96.6,65.54,108c-6.09,8.92-12,18-18.38,26.65-7.81,10.62-16,20.92-24.09,31.36a2.6,2.6,0,0,1-.82.72c9.59-14.83,21.27-28.14,30.9-43s20-29.09,30.11-43.6Z"/><path class="cls-1" d="M18.34,311.1c1.89-3.34,3.9-6.64,5.66-10.05,4.51-8.73,8.92-17.5,13.36-26.26a114.27,114.27,0,0,0,7.91-18.45c.37-1.21.95-2.6,1.26-3.84a28,28,0,0,1,1.56-3.16c.26.46.6.65.5,1a80.67,80.67,0,0,1-3.42,10.37c-3.45,7.75-7.14,15.4-10.75,23.08a179,179,0,0,1-14,24.95c-.59.87-1.19,1.72-1.79,2.58Z"/><path class="cls-1" d="M256.44,141.49c-7.26-20.41-11.09-41.66-16-62.65l.58-.17c.22.66.49,1.3.65,2q3.18,13,6.33,26,4,16.53,8.06,33.06C256.24,140.26,256.33,140.88,256.44,141.49Z"/><path class="cls-1" d="M148.65,19.32c-.47,1.6-.84,3.24-1.42,4.8a273.12,273.12,0,0,1-11.86,26.36c-3.45,6.94-6.86,13.9-10.29,20.86l-.47-.22,23.49-52Z"/><path class="cls-1" d="M306.06,75.66c-8.54-15.82-19.27-30.38-26.56-46.9a2.94,2.94,0,0,1-.08-.9l.31-.21a5.76,5.76,0,0,1,.94,1.05c1.84,3.44,3.55,7,5.49,10.34,4.66,8.12,9.48,16.14,14.13,24.27,2.25,3.93,4.26,8,6.37,12Z"/><path class="cls-1" d="M224.53,14.79c5.11,17.14,10,34.33,13.05,52l-.33.1c-.51-1.77-1.07-3.54-1.53-5.32-2.62-10.14-5.17-20.29-7.83-30.42-1-3.9-2.32-7.74-3.38-11.63a37.15,37.15,0,0,1-.71-4.61Z"/><path class="cls-1" d="M106.26,225.56c1.33-5,2.65-9.91,4-14.86q4.39-16.14,8.81-32.27a11.35,11.35,0,0,1,.28-1.34,11.61,11.61,0,0,1,.77-1.43,5.36,5.36,0,0,1,.56,1.63,10.8,10.8,0,0,1-.43,2.57c-4.14,15.29-8.13,30.62-13.55,45.52a.78.78,0,0,1-.16.21Z"/><path class="cls-1" d="M316.86,91.1a51.43,51.43,0,0,1,3.24,4.15c2.25,3.51,4.27,7.18,6.55,10.67,4.32,6.61,8.78,13.12,13.12,19.71A75.25,75.25,0,0,1,344,133C333.84,119.76,324.19,106.2,316.86,91.1Z"/><path class="cls-1" d="M276.42,221.11c-3.74-5.3-13.68-43-13.17-48.69Q269.67,196.17,276.42,221.11Z"/><path class="cls-1" d="M365.08,314.5c-1.1-3.28-2.31-6.53-3.27-9.85-2.18-7.54-4.23-15.11-6.36-22.67-.37-1.32-.94-2.59-1.33-3.9a3.54,3.54,0,0,1,.09-1.24c.37.24,1,.41,1.08.75.87,2.41,1.75,4.83,2.42,7.31,2.52,9.35,5,18.72,7.41,28.09.13.46.19.95.28,1.42Z"/><path class="cls-1" d="M122.18,19c-.4,3.2-18.65,29.8-22.16,32.44C107.49,40.68,114.06,29.3,122.18,19Z"/><path class="cls-1" d="M198.32,30.28A291.5,291.5,0,0,1,198,64.11a244.75,244.75,0,0,1-.49-33.82Z"/><path class="cls-1" d="M359.35,152.8c5.83,7.37,10.23,15.64,14.92,23.72l-.53.38a26,26,0,0,1-2.21-2.72c-2.25-3.61-4.45-7.27-6.63-10.94-1.87-3.15-3.7-6.33-5.55-9.5-.13-.23-.26-.46-.38-.69Z"/><path class="cls-1" d="M202.27,107v22.29C201,127,200.73,111,201.81,107Z"/><path class="cls-1" d="M390.68,226.12c-5.24,2.3-10.68,1.88-16.14,1.32l-.06-.45c.35-.06.7-.14,1-.17,4-.41,7.92-.83,11.89-1.19,1.06-.1,2.15,0,3.22,0Z"/><path class="cls-1" d="M272,352.89c-2,1.26-10.84,1.95-13.61,1.05C259.58,352.66,269.42,351.89,272,352.89Z"/><path class="cls-1" d="M376.2,348.34c2.67,4.81,5.74,9.43,7,14.89A47.19,47.19,0,0,1,376.2,348.34Z"/><path class="cls-1" d="M220.64,158.3h12.6c-2,1.87-9.84,2-12.64.37Z"/><path class="cls-1" d="M360.24,251.81c3.89-.4,7.77-1.15,11.71-.46C368.11,252.94,364.18,252.44,360.24,251.81Z"/><path class="cls-1" d="M361.93,260.57c-3.8,1.48-7.38,1.34-11.11,1.53C351.64,260.87,358.81,259.93,361.93,260.57Z"/><path class="cls-1" d="M273.09,286.54c-3.79,1.64-7.56.54-11.34,0v-.37h11.33Z"/><path class="cls-1" d="M404.07,190.64c3.1-.18,6.23-.81,9.24.49C410.15,192.64,407.13,191.21,404.07,190.64Z"/><path class="cls-1" d="M236.47,169.56c-1.21,1.9-6.35,2.18-9.3.6Z"/><path class="cls-1" d="M395.45,217.43c-1.81,2.25-6.33,3-9.68,1.74Z"/><path class="cls-1" d="M215.88,208.72l7.82-1C222.83,209.78,217.57,210.6,215.88,208.72Z"/><path class="cls-1" d="M227.17,146.82c-3.54.86-7.07.19-10.6-.25C220.11,146.49,223.65,145.6,227.17,146.82Z"/><path class="cls-1" d="M401.89,208c-1.86,1.41-6.49,1.53-8.35.28C396.38,208.11,398.94,207,401.89,208Z"/><path class="cls-1" d="M225.56,190.41c2.36-1,4.28-2.28,6.76-1.81C231.5,190.1,227.91,191.13,225.56,190.41Z"/><path class="cls-1" d="M223,203.08c-1,.86-4.11,1.6-6.44,1.53C217.68,203.13,221.38,202.26,223,203.08Z"/><path class="cls-1" d="M415.45,184c-1.48,1.32-5.5.69-6.76-.77Z"/></g></g></g></svg>