<?xml-stylesheet type="text/css" href="../svg.css" ?>

<svg xmlns="http://www.w3.org/2000/svg" viewBox="0 0 341.98 399.34"><defs><style>.cls-1,.cls-4{fill:#fff;}.cls-1,.cls-2,.cls-3,.cls-4{stroke:#fff;}.cls-1,.cls-2,.cls-4{stroke-linejoin:round;stroke-width:2px;}.cls-2,.cls-3{fill:none;}.cls-3{stroke-miterlimit:10;}.cls-4{stroke-linecap:round;}</style></defs><g id="Calque_2" data-name="Calque 2"><g id="ordinateur"><g id="forms"><path class="cls-1" d="M265.85,17.86c-.35-6.61-.58-9.38-2-10.65-20.35-4.6-223.32-8-249.36-5.16a3.83,3.83,0,0,0-2,1.92C10.67,7.59-9.32,188.23,8,231.38c4.14,1.53,26.18,4.49,55.39,7.77,12.4,1.39,26.09,2.83,40.26,4.25,57.73,5.78,123.3,11.07,141.09,10.06.64,0,1.22-.08,1.73-.13C257.07,244.15,269.84,65.53,265.85,17.86Zm-28.57,198c-.83,5.87-1.63,9.4-2.35,9.76-5.45,2.72-208.84-14.94-213.11-21.79-4-6.41-.53-164.9,3.07-175.66,0,0,211.74.34,218.55,6.13.75.64,1.3,3.44,1.67,7.91h0C247.67,72.88,242,182.36,237.28,215.83Z"/><path class="cls-2" d="M307.67,69.18C306,120.24,300.4,193.28,295.43,224c-.17,1.05-.34,2-.51,3-1.14,6.4-2.23,10.43-3.22,11.3-4,3.52-45.19,15.06-45.19,15.06,10.56-9.18,23.33-187.8,19.34-235.47-.35-6.61-.58-9.38-2-10.65,0,0,36.21,1.41,41.87,8C308.25,18.13,308.61,40.09,307.67,69.18Z"/><path class="cls-2" d="M322.45,206.93c-3.07,4.49-22.29,14.6-27,17,5-30.7,10.6-103.74,12.24-154.8,5.1,0,21.17.16,24.47,3.54S327,200.29,322.45,206.93Z"/><polygon class="cls-1" points="278.64 398.34 7.51 357.12 7.51 281.39 278.14 311.29 278.64 398.34"/><path class="cls-3" d="M237.28,215.83C230.1,218.67,49.91,201,37.65,195.38,32,192.76,34,45.92,41.06,35.49a1.85,1.85,0,0,1,.42-.45c13.78-6.9,198.73,2.74,203.63,7.14h0C247.67,72.88,242,182.36,237.28,215.83Z"/><path class="cls-2" d="M245.11,42.18c-4.9-4.4-189.85-14-203.63-7.14a1.85,1.85,0,0,0-.42.45L24.89,28.14s211.74.34,218.55,6.13C244.19,34.91,244.74,37.71,245.11,42.18Z"/><path class="cls-2" d="M244.63,259.29c-51.36,33.23-140.94,6-140.94-5.7V243.4c57.73,5.78,123.3,11.07,141.09,10.06A46.11,46.11,0,0,1,244.63,259.29Z"/><path class="cls-1" d="M341,230.61l-62.84,80.68L7.51,281.39l55.92-42.24c12.4,1.39,26.09,2.83,40.26,4.25v10.19c0,11.66,89.58,38.93,140.94,5.7a46.11,46.11,0,0,0,.15-5.83c.64,0,1.22-.08,1.73-.13,0,0,41.2-11.54,45.19-15.06,1-.87,2.08-4.9,3.22-11.3Z"/><polygon class="cls-2" points="340.98 230.61 340.98 298.4 278.72 398.21 278.14 311.29 340.98 230.61"/><polygon class="cls-2" points="278.72 398.21 278.64 398.34 278.14 311.29 278.72 398.21"/><path class="cls-2" d="M37.65,195.38,21.82,203.8c-4-6.41-.53-164.9,3.07-175.66l16.17,7.35C34,45.92,32,192.76,37.65,195.38Z"/><path class="cls-2" d="M237.28,215.83c-.83,5.87-1.63,9.4-2.35,9.76-5.45,2.72-208.84-14.94-213.11-21.79l15.83-8.42C49.91,201,230.1,218.67,237.28,215.83Z"/></g><g id="hachures"><line class="cls-4" x1="332.91" y1="80.56" x2="318.76" y2="81.67"/><line class="cls-4" x1="332.92" y1="87.97" x2="322.93" y2="88.65"/><line class="cls-4" x1="332.61" y1="96.82" x2="318.42" y2="97.84"/><line class="cls-4" x1="332.21" y1="106.34" x2="317.23" y2="107.97"/><line class="cls-4" x1="331.72" y1="115.79" x2="310.33" y2="117.93"/><line class="cls-4" x1="331.15" y1="125.4" x2="322.46" y2="126.44"/><line class="cls-4" x1="330.43" y1="136.42" x2="314.17" y2="137.8"/><line class="cls-4" x1="329.64" y1="147.25" x2="319.52" y2="148.14"/><line class="cls-4" x1="328.83" y1="157.45" x2="309.95" y2="159.76"/><line class="cls-4" x1="327.88" y1="168.42" x2="313.65" y2="170.73"/><line class="cls-4" x1="326.57" y1="181.7" x2="308.14" y2="185.78"/><line class="cls-4" x1="325.3" y1="192.57" x2="303.31" y2="198.95"/><line class="cls-4" x1="323.35" y1="201.63" x2="302.67" y2="209.59"/><line class="cls-4" x1="340.98" y1="244.31" x2="328.55" y2="258.61"/><line class="cls-4" x1="340.98" y1="260.82" x2="332.92" y2="270.01"/><line class="cls-4" x1="340.98" y1="273.42" x2="332.92" y2="282.61"/><line class="cls-4" x1="340.98" y1="288.39" x2="332.92" y2="298.78"/><line class="cls-4" x1="245.73" y1="59.46" x2="218.59" y2="59.46"/><line class="cls-4" x1="245.11" y1="81.12" x2="221.99" y2="81.12"/><line class="cls-4" x1="245.05" y1="100.32" x2="226.76" y2="100.31"/><line class="cls-4" x1="243.1" y1="116.86" x2="223.71" y2="116.86"/><line class="cls-4" x1="243.1" y1="139.46" x2="229.48" y2="139.12"/><line class="cls-4" x1="242.25" y1="158.6" x2="225.74" y2="158.6"/><line class="cls-4" x1="240.95" y1="177.63" x2="221.99" y2="177.21"/><line class="cls-4" x1="239.93" y1="190.54" x2="212.55" y2="190.18"/><line class="cls-4" x1="238.31" y1="207.5" x2="200.52" y2="206.46"/></g></g></g></svg>