<?xml-stylesheet type="text/css" href="../svg.css" ?>

<svg xmlns="http://www.w3.org/2000/svg" viewBox="0 0 453.76 427.9"><defs><style>.cls-1{stroke:#fff;stroke-linejoin:round;stroke-width:2px;}</style></defs><g id="Calque_2" data-name="Calque 2"><g id="Calque_5" data-name="Calque 5"><path class="cls-1" d="M59.89,195.09c1.43-1.68,2.82-3.39,4.28-5,6.09-6.82,10.69-14.67,15.63-22.29,8.91-13.73,19-26.45,31.69-36.92a174.47,174.47,0,0,1,33.74-22.28c10.91-5.4,22.1-5.8,33.63-2.42,9.9,2.91,18.79,7.81,27.15,13.71C213.25,125,220.52,130,228.45,134c9.28,4.7,19.07,8.09,29,11.15a247.53,247.53,0,0,1,48.29,20.42A51.3,51.3,0,0,1,326.45,187a71.59,71.59,0,0,1,8,32.88,129.06,129.06,0,0,1-12.78,58.35,55.13,55.13,0,0,1-9.37,13.8,33.23,33.23,0,0,1-6,4.86c-3.51,2.31-7.14,1.85-10.29-.66a35.56,35.56,0,0,1-6.06-6.2c-3.83-5.08-7.38-10.37-11.05-15.56a75.57,75.57,0,0,0-11.54-13.38c-4.46-3.91-9.48-5.93-15.53-4.61a43.06,43.06,0,0,0-16.29,7.29c-1.6,1.16-3.16,2.39-4.83,3.46a10.15,10.15,0,0,1-11.13.16A24.45,24.45,0,0,1,211,259a44.64,44.64,0,0,1-6.82-19.4c-.91-8.94,2.58-16.17,9.06-22.16C218,213,223.73,211,230,210c4.41-.7,5.14-2.47,2.74-6.23-3.13-4.89-10.32-7.35-16.47-5.53a55.21,55.21,0,0,0-15.2,7.78c-19.33,13.12-34.89,29.91-47.53,49.43a68.39,68.39,0,0,0-10.75,28.79c-1,8-.7,16,3.05,23.37,4.67,9.21,12.53,14.56,22.17,17.47,7.1,2.14,14.46,2.45,21.8,2,12.61-.71,25.21-1.76,37.82-2.42,9.78-.52,19.45.27,28.76,3.67a63.75,63.75,0,0,1,16.17,9.19c5.51,4.12,10.86,8.43,16.4,12.49a36.12,36.12,0,0,0,14.77,6.64c7.54,1.39,14.87.3,22.07-2,8-2.57,15.07-6.89,21.74-11.89a178.37,178.37,0,0,0,32.61-32.18,26,26,0,0,0,5.48-13.51,376.89,376.89,0,0,0,2.47-40.3,221.8,221.8,0,0,0-3.95-41.93c-2.1-11.37-4.29-22.73-6.08-34.16a161.21,161.21,0,0,1-1.63-32.42c.76-16.4,1.69-32.79,2.37-49.19.36-8.48-.32-16.93-3.47-24.9-1.64-4.17-4.05-8-6.12-12.06-.48-.92-1-1.82-1.45-2.77,5,6.51,9.32,13.37,11,21.62a96,96,0,0,1,1.41,23.68c-.74,16.13-1.65,32.24-2.19,48.37-.49,14.63,1.48,29.06,4.12,43.43,2.2,12,4.38,24,6.1,36.11a171.88,171.88,0,0,1,1.1,33.56c-.51,9.39-1.28,18.77-2.06,28.14a43,43,0,0,1-1.4,7.88,18.66,18.66,0,0,1-2.62,6C370.75,325.2,356.1,340,337.85,351a55.57,55.57,0,0,1-24.42,7.78,36.66,36.66,0,0,1-25.06-7.39c-5.66-4.13-11.1-8.56-16.68-12.79-8-6.05-16.74-10.35-26.81-11.72a110.79,110.79,0,0,0-22.22-.51c-11.73.79-23.45,1.76-35.19,2.33-8.19.39-16.36-.32-24-3.57-10.39-4.41-18.11-11.47-21.15-22.74a47.51,47.51,0,0,1-.3-21.8c2.34-11.94,7.61-22.57,14.74-32.32,12-16.47,25.77-31.2,42.68-42.8,5.27-3.61,10.7-6.9,16.9-8.69,6.56-1.89,14.39,1,17.78,6.46a13.89,13.89,0,0,1,1,2c1.1,2.78.27,4.71-2.59,5.61-1.66.52-3.41.73-5.12,1.11-11,2.5-18.37,9-21.43,20-1.39,5-.5,9.91.94,14.72,1.77,5.92,4.1,11.58,8.6,16,2.28,2.26,4.66,4.39,8,5a8.69,8.69,0,0,0,6.61-1.3c1.56-1.07,3.08-2.19,4.6-3.31A45.12,45.12,0,0,1,251,255.46c6.37-1.57,11.83.21,16.7,4.32a63.45,63.45,0,0,1,10.41,11.61c3.8,5.28,7.42,10.68,11.2,16a55.13,55.13,0,0,0,4.32,5.22,20.52,20.52,0,0,0,3.2,2.83,7.77,7.77,0,0,0,9.18.39,25.38,25.38,0,0,0,6.39-5.65c6.38-7.61,10.55-16.4,13.61-25.76,4.74-14.43,7.46-29.2,7.07-44.43-.35-13.73-3.62-26.63-11.45-38.13A46.72,46.72,0,0,0,306,167.48c-16.19-9.34-33.43-16.11-51.26-21.48-15.73-4.74-30.62-11.24-44-21-6.85-5-13.81-9.86-21.53-13.49a64.8,64.8,0,0,0-18.91-6,42.22,42.22,0,0,0-26.07,4.82c-23.15,12.27-42.92,28.44-57.85,50.17-4.93,7.18-9.52,14.61-14.59,21.69-3,4.15-6.55,7.85-9.89,11.72a14,14,0,0,1-1.7,1.45Z"/><path class="cls-1" d="M59.83,125.51a12.19,12.19,0,0,1,1.87-7.35A241.93,241.93,0,0,1,77.17,94.09C83.33,85.51,89.5,77,96.44,69a233.91,233.91,0,0,1,22.62-22.35c12.18-10.67,24.52-21.15,37.58-30.74C165,9.75,173.86,4.8,183.94,2.26s19.35-1.5,27.61,5.09c5.37,4.29,8.7,10.08,11.35,16.29,3.43,8,5.07,16.54,6.67,25.06,1.73,9.19,3.38,18.4,5.3,27.55a44.2,44.2,0,0,0,5.43,13.84c4.33,7.16,10.77,10.61,19.05,10.83,5.81.15,11.45-1.08,17.12-2.11,4.75-.87,9.51-1.33,14.28-.29a25.26,25.26,0,0,1,14.85,9.73c4.31,5.59,8.44,11.31,12.57,17,3.31,4.57,5,10,7.25,15a76.51,76.51,0,0,0,7,12.34,53,53,0,0,1,5.17,10.19A299,299,0,0,1,349,194.72a106.22,106.22,0,0,1,3.55,39,354.6,354.6,0,0,1-4.83,36.59c-1.64,8.27-4,16.3-8.95,23.3-3.18,4.46-7.33,7.88-11.61,11.18a71.5,71.5,0,0,1-15.84,9.24l2.13-1.46,2.18-1.47c4.21-2.91,8.48-5.74,12.61-8.75,8.74-6.37,13.84-15.12,16.47-25.47a211.34,211.34,0,0,0,4.94-29.44c.8-7.42,1.51-14.86,1.86-22.32a94.3,94.3,0,0,0-4.16-31A318.52,318.52,0,0,0,334.52,159a22.11,22.11,0,0,0-3-5.29,57.36,57.36,0,0,1-8.8-16.23,70.86,70.86,0,0,0-10.5-18.26c-2.79-3.62-5.42-7.36-8.32-10.88-6.14-7.45-14.16-10.1-23.6-8.7-5,.76-10.08,1.76-15.14,2.44a30.81,30.81,0,0,1-13-.81c-6.5-2-10.92-6.3-14-12.17s-4.85-12.53-6.1-19.15c-1.91-10.1-3.6-20.23-5.56-30.32A69.92,69.92,0,0,0,219,18.36C215.07,11.43,209.82,6,202,3.63c-6.73-2-13.37-1.43-20,.57a81,81,0,0,0-25.52,13.54C138,31.76,120,46.37,103.86,63A248.92,248.92,0,0,0,85.61,84.7,349.68,349.68,0,0,0,63.4,116.58C61.72,119.36,60.11,122.14,59.83,125.51Z"/><path class="cls-1" d="M184.09,253.55a25.51,25.51,0,0,0-.93,2.44c-2,7.81-4,15.63-4.69,23.7a36.12,36.12,0,0,0,1.24,13.67c1.7,5.7,5.46,8.92,11.26,9.53a93.41,93.41,0,0,0,14.06.75c14.06-.68,27.55,1.93,40.68,6.62a238,238,0,0,1,41.22,19.06c6.58,3.88,13.74,6.07,21.52,5.48,5.07-.39,9.45-2.64,13.62-5.35a53.65,53.65,0,0,0,15.39-14.52c2.34-3.42,5-6.63,7.49-9.95a106.3,106.3,0,0,0,14.83-27.37c3.22-8.77,4.88-17.95,6-27.22a298.27,298.27,0,0,0,1.58-43.92c-.64-22.23-3.18-44.22-9.36-65.66-3.42-11.88-7.58-23.49-13.48-34.42-4.82-8.93-12-14.77-21.94-17.17a76.9,76.9,0,0,1-10.32-3.06c-9.11-3.63-15-10.19-16.91-19.94-.91-4.66-.08-9.29,1-13.85,1.71-7.46,3.61-14.87,7.19-21.71A31.87,31.87,0,0,1,310.56,21c.28-.25.56-.49.85-.71,0-.05.15,0,.42-.07-.52.73-.91,1.39-1.4,2-5.62,6.84-9,14.79-11,23.29a123.39,123.39,0,0,0-2.84,14.35c-1,8.53,2.49,15.34,8.84,20.84,4.07,3.53,9,5,14.1,6.39,3.11.83,6.21,1.77,9.22,2.89,7.16,2.68,12.12,7.87,16,14.29,4.07,6.8,6.95,14.13,9.69,21.52a220,220,0,0,1,11.69,47.83,334.94,334.94,0,0,1,2.1,65.71c-.84,13.05-2.64,26-7.08,38.35a105.85,105.85,0,0,1-14.95,27.79c-3.75,5-7.41,10.13-11.48,14.89a51.29,51.29,0,0,1-19.12,13.83c-7.35,3.13-14.8,2.32-22-.52a148.46,148.46,0,0,1-13.83-6.9c-16.55-8.65-33.51-16.2-51.91-20a102.12,102.12,0,0,0-22.56-1.77,113.64,113.64,0,0,1-14.74-.85c-7.14-.8-10.78-5.39-12.46-12.08-1.6-6.4-1-12.76.16-19.06,1.1-5.88,2.65-11.67,4-17.49A4,4,0,0,1,183,254C183.14,253.72,183.63,253.71,184.09,253.55Z"/><path class="cls-1" d="M72.91,339.85c-.86,7.27,1.36,13.91,4.11,20.46a60.52,60.52,0,0,0,13.63,20.12A36.17,36.17,0,0,0,115.89,391a84.63,84.63,0,0,0,24.73-3.24c10-2.72,20-5.73,30-8.55a109.67,109.67,0,0,1,19.59-4.1,32,32,0,0,1,23.85,7.2,101,101,0,0,1,8.9,8.28c7.24,7.44,14.82,14.4,24.26,19a128.66,128.66,0,0,0,25.1,9.27,229,229,0,0,0,40,6.16c15.73,1.11,31.42.28,47.11-.87a1.79,1.79,0,0,0,1.2-.68c5.92-9,12.07-17.75,18.85-26.09,10.67-13.14,19.47-27.52,28.34-41.89,6.92-11.21,14.51-22,21.86-32.95a35.78,35.78,0,0,1,3.39-4,5.06,5.06,0,0,1,1.32-.78l.23.32a1.33,1.33,0,0,1-.19.47c-5.11,5.46-9,11.81-13,18-6,9.34-12,18.73-17.65,28.27A335.65,335.65,0,0,1,376,404.12c-2.4,3-4.47,6.2-6.7,9.3-1.08,1.5-2.22,2.95-3.27,4.46-1.37,2-2.75,3.92-4,6a3,3,0,0,1-2.81,1.76c-6,.24-12,.67-17.95,1a237.54,237.54,0,0,1-67.13-5.87A114.53,114.53,0,0,1,241,407.59c-7.17-4.33-13.06-10.19-18.94-16.07a104.81,104.81,0,0,0-10.49-9.39c-6.73-5.09-14.51-6.54-22.8-5.44-9.91,1.31-19.39,4.41-28.93,7.2-9.11,2.67-18.17,5.5-27.54,7.18a68.76,68.76,0,0,1-21.47.86c-9.39-1.27-16.87-6-23.21-12.84a62.36,62.36,0,0,1-15.28-29.9,36.17,36.17,0,0,1-.42-7.15,8.07,8.07,0,0,1,.68-2.29Z"/><path class="cls-1" d="M301.51,228.79c-.14-1.13-.19-2.29-.43-3.4a11,11,0,0,0-6.35-7.91c-4.06-1.86-8.25-3.41-12.4-5.06-2.61-1-5.33-1.82-7.84-3.06-3.9-1.93-4.9-4.6-3.51-8.71.89-2.61,2-5.16,2.94-7.75,1.55-4.13.51-7.64-2.43-10.8a40,40,0,0,0-9.23-7.21,213.58,213.58,0,0,0-35.82-16.61,29.3,29.3,0,0,0-14.35-1.06c-6.28.94-12.51,2.21-18.77,3.31-4.32.75-8.65,1.35-13,.54a13.28,13.28,0,0,1-7.58-4c-2.18-2.37-4.12-5-6.18-7.44-1.5-1.8-2.93-3.67-4.55-5.37a6.11,6.11,0,0,0-6.92-1.68c-7.17,2.41-13.5,5.92-17.7,12.5-12.6,19.7-29.29,35.77-46.09,51.73a233.59,233.59,0,0,1-25.06,21.32c-11.88,8.47-24.1,16.39-37.61,22.1a43.16,43.16,0,0,1-12.45,3.53,9,9,0,0,1-7.87-2.86c-3-3.22-4.61-7.2-5.83-11.33-1-3.27-1.89-6.57-1.17-10a5.55,5.55,0,0,1,.8-2.17c-.1.66-.21,1.31-.3,2-.71,5.12,1.14,9.71,3,14.28a23.89,23.89,0,0,0,1.86,3.54c3.14,5,6.27,6.31,12,5,7-1.59,13.37-4.7,19.65-8,19.09-10.11,36.11-23,51.72-37.9C101,195.83,111.91,185.5,121.6,174c5.57-6.62,10.49-13.79,15.59-20.8,4.72-6.49,11.34-9.93,18.81-12.11a5.84,5.84,0,0,1,5.78,1.45,55.24,55.24,0,0,1,4.89,5.25c1.47,1.76,2.8,3.65,4.17,5.51,4.21,5.73,10,7.69,16.8,6.65,6.06-.92,12.05-2.22,18.09-3.25,5.83-1,11.74-2,17.58-.64a89.55,89.55,0,0,1,12,4.11,169.73,169.73,0,0,1,30.54,15.47,44.15,44.15,0,0,1,6.42,5.43c3.69,3.57,4.58,7.86,2.77,12.68-.66,1.77-1.37,3.52-2.07,5.28-.21.55-.45,1.1-.65,1.67-1.32,3.84-.57,6,3.1,7.69,2.79,1.28,5.79,2.1,8.65,3.25,3.93,1.58,7.9,3.1,11.69,5a11.6,11.6,0,0,1,6.66,9,12.86,12.86,0,0,1-.35,3.28Z"/><path class="cls-1" d="M70.4,319.46c.79-2.19,1.62-4.36,2.36-6.57,4-12,10.86-22.55,18-32.88,17.21-24.9,38.15-46.3,61.56-65.35,10.25-8.33,20.86-16.17,32.54-22.41,12.39-6.63,25.53-10.51,39.7-10.38a47,47,0,0,1,17.85,3.19c7.53,3.11,11.06,8.79,11.21,16.8.12,6.17-1.56,11.95-3.8,17.58-2,5-4.18,9.84-6.29,14.75-.13.32-.24.65-.44,1.17,2-.71,3.8-1.38,5.61-2,15-5.09,28.72-1.89,41.42,6.87a21.37,21.37,0,0,1,8.16,11.06,8.23,8.23,0,0,1,.24,1.5l-.34.13a3.34,3.34,0,0,1-.6-.77c-3-7.51-8.65-12.19-15.82-15.42C275.47,233.91,269,232,262,232.15a46.19,46.19,0,0,0-16.5,3.67,12.28,12.28,0,0,1-2.08.74c-.49.1-1.31.13-1.49-.14a2.34,2.34,0,0,1-.07-1.64,9.5,9.5,0,0,1,.79-1.76A140.14,140.14,0,0,0,251,211.53a30.32,30.32,0,0,0,.82-13.69,14.3,14.3,0,0,0-7.92-10.53c-5.18-2.7-10.78-3.7-16.54-4-16.18-.78-31,3.8-44.82,11.81-12.14,7-23.22,15.53-33.91,24.56A319.74,319.74,0,0,0,97.18,274a223.66,223.66,0,0,0-25.44,43.32c-.32.76-.73,1.48-1.1,2.21Z"/><path class="cls-1" d="M44.68,193.45A28.92,28.92,0,0,1,46,188.59c2.43-5.42,5-10.77,7.56-16.14,5-10.61,10.3-21.12,16.25-31.26a355.66,355.66,0,0,1,37.49-52A177.48,177.48,0,0,1,123,72.48c13.41-12,29.21-15.91,46.8-12,6.08,1.37,11.27,4.74,16.26,8.33,3,2.18,6,4.48,8.92,6.79,4.13,3.25,8.18,6.6,12.32,9.83,4.93,3.84,8.64,8.8,12.65,13.5,3.25,3.82,6.64,7.55,10.23,11.06a37.58,37.58,0,0,0,17.58,9.43c2,.51,4.06,1.09,6.07,1.77a33.81,33.81,0,0,1-10.09-1.62,36.55,36.55,0,0,1-15.43-9.42c-4.65-5-9.11-10.14-13.54-15.33a68.53,68.53,0,0,0-10-9.66c-5.92-4.62-11.72-9.41-17.66-14a60.12,60.12,0,0,0-13.23-8c-6.86-2.9-14-3.32-21.31-2.59C138.93,62,128,68.31,118.81,78.17c-23.52,25.36-43.73,53.05-59.1,84.13q-6.32,12.76-12.54,25.56c-.87,1.8-1.41,3.76-2.1,5.64Z"/><path class="cls-1" d="M400.31,44.91c3.52,3.23,7.2,6.31,10.51,9.73,12.34,12.74,21.23,27.75,28.56,43.8,4.71,10.33,7.83,21.13,10.52,32.11a85.33,85.33,0,0,1,2.83,16.87,46.48,46.48,0,0,1-5,22.3c-4.9,10.17-10.05,20.21-15.16,30.27a303.06,303.06,0,0,0-14.16,32.25c-3.43,9.26-4.17,18.48-1.39,28a63,63,0,0,1,2.53,21c-.23,4.36,0,8.75-.11,13.13a8.6,8.6,0,0,1-.58,2.09l-.46-.07c0-.61-.09-1.23-.09-1.84,0-6.18.13-12.35.09-18.53a53.21,53.21,0,0,0-2.53-15.5c-3.18-10.27-2-20.12,1.75-30a358.14,358.14,0,0,1,17.71-38.38q6.45-12.36,12.36-25c4.5-9.62,4.88-19.66,2.71-30a186.24,186.24,0,0,0-22.65-58.48c-7.19-12-15.57-23-26.37-32-.46-.38-.89-.81-1.33-1.22a.84.84,0,0,1-.12-.23Z"/><path class="cls-1" d="M253.74,375.46c-4.09-2.37-8.21-4.69-12.28-7.11a64.79,64.79,0,0,0-13-6.46A64.64,64.64,0,0,0,208.88,359c-11.85-.15-23.7,0-35.55-.27-8.24-.16-16.49-.54-24.72-1.09a58.74,58.74,0,0,1-16-3.49c-9.59-3.44-15.19-10.29-17.62-20a64.56,64.56,0,0,1-.93-25.93,122.2,122.2,0,0,1,7.65-27.91,18.09,18.09,0,0,1,4.59-7,36.09,36.09,0,0,0-1.88,3.44c-6,14.21-10,28.89-9.92,44.46A51.62,51.62,0,0,0,117,336.3c2.76,8.81,8.78,14.25,17.45,17.05a77.54,77.54,0,0,0,22.45,3.55c16,.32,32,.33,48,.66,5.52.12,11,.6,16.53,1.26a43.72,43.72,0,0,1,17.87,6.65c4.58,2.83,9.07,5.83,13.58,8.76a12.44,12.44,0,0,1,1.06.86Z"/><path class="cls-1" d="M265.91,378.65l4.72,3.94c6.66,5.59,14.5,8.24,23,9.22,9.2,1.06,17.95-1,26.58-3.88,11.55-3.85,22.67-8.61,32.61-15.77,8.15-5.86,15.34-12.83,22.53-19.8,8.33-8.06,15.81-16.89,23.37-25.66a73.83,73.83,0,0,1,12.92-11.22,9,9,0,0,1,1.53-.75l.24.3a7.18,7.18,0,0,1-.93,1c-8.46,6.26-15.12,14.28-22,22.12a258.41,258.41,0,0,1-34.76,33.42c-10.62,8.33-22.85,13.57-35.6,17.68a71.88,71.88,0,0,1-16.41,3.7c-14.45,1.13-27.05-2.88-37.3-13.41a9.87,9.87,0,0,1-.65-.8Z"/><path class="cls-1" d="M280.73,314.85a6,6,0,0,1-1.74-.75c-2.14-1.87-4.34-3.72-6.29-5.79a87,87,0,0,1-6.53-7.69c-5.56-7.44-13-11.91-21.77-14.6a109.13,109.13,0,0,0-19.11-3.6,46.84,46.84,0,0,1-16-4.84,22.51,22.51,0,0,1-9.46-9.4,43.36,43.36,0,0,1-5.58-25.79,28.59,28.59,0,0,1,7.84-17.1c-.65,1.19-1.24,2.42-1.95,3.57-5.16,8.33-5.88,17.29-3.87,26.65A42.77,42.77,0,0,0,202.28,270c3,4.64,7.61,7,12.53,8.86s10.18,2.47,15.4,3.1c9.09,1.1,17.81,3.36,25.83,8a39.4,39.4,0,0,1,9.71,8.54q6.13,6.94,12.38,13.76a24.35,24.35,0,0,0,2.77,2.26Z"/><path class="cls-1" d="M37,296.08a14.62,14.62,0,0,0,2.67-1.67c3.4-3.24,6.63-6.67,10.08-9.86a63.45,63.45,0,0,0,12.34-15.87c6.31-11.32,14-21.59,23.91-30,3.47-3,7.11-5.72,10.66-8.57l.27.27-1.58,1.47c-5.43,5.05-11.06,9.92-16.26,15.2a87,87,0,0,0-14.33,19.6,77,77,0,0,1-17.19,21.64c-2.67,2.33-5.24,4.78-7.93,7.09C38.88,296,37.94,296.73,37,296.08Z"/><path class="cls-1" d="M170.09,183.64c-3.63,1.29-7.23,2.65-10.88,3.87-6,2-12,4-17.53,7a21.51,21.51,0,0,0-8.52,7.67c0,.1-.21.14-.62.38a14.26,14.26,0,0,1,.65-1.72,18.94,18.94,0,0,1,6.74-6.6A68.27,68.27,0,0,1,156.75,187c4.1-1.22,8.24-2.31,12.36-3.46.29-.08.6-.12.91-.18Z"/></g></g></svg>