<svg xmlns="http://www.w3.org/2000/svg" viewBox="0 0 479.21 283.89"><defs><style>.cls-1{fill:#fff;stroke:#424242;stroke-linecap:square;stroke-linejoin:round;stroke-width:2px;}</style></defs><g id="Calque_2" data-name="Calque 2"><g id="ruines"><g id="lines"><path class="cls-1" d="M478.21,248.24l-.76,2.38c-1.93-4.28-.79-8.43-1-12.48l.63-.09c.26,1.53.54,3.06.78,4.6.15.91.25,1.84.38,2.76Z"/><path class="cls-1" d="M176.3,164.53a2.76,2.76,0,0,0,.54-.54c2.09-3.59,5.41-5.26,9.31-6.11,5.5-1.2,6.22-2.27,5.46-7.93-.16-1.24-.3-2.48-.43-3.57a71.06,71.06,0,0,1-21.6-.7l2.45-.17c.84-.07,1.67-.21,2.51-.2,4.77.05,9.55.14,14.32.19,2.18,0,2.2,0,2-2.2-.26-3-.54-5.94-.81-8.93-8.2.06-16.33-.19-24.38-1.79H190c-.09-4.29,0-8.52,2.28-12.42a146.35,146.35,0,0,0-23.85-2c-9.93,0-19.85-.29-29.77-.16a83.81,83.81,0,0,0-13.1,1.4c-4.15.73-7.38,3.26-9.83,6.62a28.69,28.69,0,0,1-8.39,8,10.63,10.63,0,0,0-4.4,5.41c-1.29,3.32-2.53,6.66-3.68,10a8.15,8.15,0,0,1-7.71,6.06c-6.52.55-13,1.38-19.52,2-2.8.28-3.25.6-3.39,3.42-.11,2.15,0,4.3-.06,6.45q-.16,18.9-.32,37.79c0,.73-.08,1.46-.16,2.19-.37,3.54-1.45,4.65-5,4.51a87.49,87.49,0,0,1-9.55-1,157.86,157.86,0,0,0-35-.93c-2.51.17-5,.44-7.52.68-.45.05-.89.2-1.54.34.37,1.27.67,2.41,1,3.54a113.72,113.72,0,0,1,4.35,23.3c.25,2.74,1.66,5.38,2.55,8.06.63,1.91,1.27,3.81,1.91,5.72l-.48.2A39,39,0,0,1,17,248.05c-.66-1.83-1.08-3.73-1.74-5.55a9.69,9.69,0,0,0-1.4-2.05,1.44,1.44,0,0,1-.3-.52c-.36-2.06-.76-4.12-1-6.19s-.15-4.45-.61-6.59c-1-4.71-2.22-9.37-3.46-14-.73-2.75-.41-3.56,2.34-3.84,12.18-1.2,24.38-1.92,36.61-.47l13.12,1.59.94.07c4.68.27,5.24-.17,5.31-4.8.19-12.06.31-24.13.46-36.2,0-3-.05-6.08.11-9.12s1-3.76,3.94-4c5.64-.55,11.29-1,16.92-1.64a22.64,22.64,0,0,0,5.52-1,6.41,6.41,0,0,0,3.14-2.57,43.19,43.19,0,0,0,2.58-6.23c.66-1.71,1.25-3.45,1.91-5.16a16.12,16.12,0,0,1,6.23-7.51,19.92,19.92,0,0,0,5.34-4.77c4.92-7.32,11.9-10.34,20.39-10.45,9.08-.1,18.16,0,27.23-.11,10.73-.12,21.42.14,32,1.89a3.09,3.09,0,0,0,2.17-.71c7-5.65,13.8-11.45,20.82-17a35.72,35.72,0,0,0,10.84-14.25A36,36,0,0,1,237.86,72a45.73,45.73,0,0,0,13.4-16.65c1.59-3.24,3.27-6.46,5.11-9.57,3.3-5.59,5.05-11.72,6.66-17.92a21.87,21.87,0,0,1,9.42-13.43,113.31,113.31,0,0,0,12.1-9.3,12,12,0,0,1,11.52-2.7c2,.49,4.06.69,6,1.37a33.55,33.55,0,0,0,20,.59A116.46,116.46,0,0,1,344.24,1c3.7-.2,6.74.93,9,3.87,2,2.62,4.64,3.49,7.84,3.53,4.61.06,9.22.39,13.82.6,1.55.06,2,1.06,2.17,2.39.26,2,.54,3.94.92,5.89a9.73,9.73,0,0,0,3.29,5.43c1.53,1.36,3,2.76,4.58,4.08.39.33.6.47,1.19,1a11.81,11.81,0,0,1,.9.87c4.34,4.46,6.13,10,7.06,16a71.59,71.59,0,0,0,14.4,33.44c3.12,4,6.47,7.86,9.88,11.64a32.68,32.68,0,0,0,4.63,3.68c6.17,4.66,13.62,4.67,20.78,5.55,5.07.63,10,1.29,14.72,3.6a9.62,9.62,0,0,1,5.84,9.11c.08,5.87,0,11.74,0,17.62,0,15.85.2,31.7-.1,47.55-.2,10.85-1.08,21.68-1.7,32.52-.27,4.87-.63,9.73-1,14.6l.39.32.49-1.45.69.36c-2.43,7.72-1.88,15.67-2.26,23.55q1.64-12.56,3.25-25.12l.42,0c0,2.3.17,4.62,0,6.91-.84,9.77-1.8,19.53-2.72,29.29a11,11,0,0,1-.7,3.28l-.39-7.16c0-.31.1-.68,0-.93-2.08-4-.71-8.22-.9-12.34a9.62,9.62,0,0,0-.16-2.37q-1.45,9.8-2.93,19.59l-.45-.06c-.48-7.65,1-15.12,2.35-22.52l-16.43,1.3c-.91,6.67-.1,13.62,0,20.57-2.47-6.81-2.05-13.82-1.36-20.8-2.67-.64-2.82-.67-3.31,1.79-.91,4.62-1.61,9.29-2.45,13.93-.22,1.21-.64,2.39-1,3.59h-.64c-.63-5.95-1.26-11.9-1.91-17.92,2,4.18,1.95,8.76,2.57,12.71.6-4.51,1.25-9.46,1.94-14.62l-5.56-.66-.05-.32,2.42-.15h.32c2.48.23,4.51-.2,5.16-3.1a3.71,3.71,0,0,1,1.5-1.93c-.35,1.51-.71,3-1.07,4.51,2.17.58,2.3.49,2.67-1.54a22.09,22.09,0,0,1,1.26-4.68c-.11,2.07-.22,4.15-.34,6.6l16.73-.73a56.26,56.26,0,0,0,1.16-6.33c.66-9,1.22-18,1.75-27q.53-9,.86-17.92c.16-3.93.17-7.87.24-11.81,0-.5,0-1,0-1.63a63.07,63.07,0,0,1-21.31,1.58,6,6,0,0,1,1-.3c6.18-.81,12.37-1.65,18.57-2.36,1.44-.17,1.78-.72,1.76-2.09q-.18-16-.21-32.11c0-6.72.21-13.43.2-20.15s-1.39-8.49-7.57-11.13c-4-1.69-8.14-1.87-12.29-2.42q-6.78-.91-13.51-2.14A21.09,21.09,0,0,1,421.74,94a21.08,21.08,0,0,0-8.23-3.67,109.14,109.14,0,0,1-13-4,11.13,11.13,0,0,1-3.93-2.8,40.22,40.22,0,0,0-16.1-9.82c-4.11-1.42-8.08-3.23-12.16-4.73A34.75,34.75,0,0,0,356,66.57c-11.8.06-22.22-4.21-32.16-10.09-6-3.57-11-8.4-16.05-13.13a98.54,98.54,0,0,0-17.65-12.86c-5.12-3-10.44-3.67-16-1.46-1.38.55-8.87,1.45-10.32,2.27.08-.32,0-.23.33-.59.5-.58,7.43-1.86,8.12-2.17,4.71-2.1,9.56-3,14.49-.89,6.3,2.64,11.82,6.56,17.07,10.85a6.62,6.62,0,0,0,4.64,1.66c10-.14,20.05.05,30.07-.19,12.38-.29,24.76-.93,37.14-1.31,4.13-.13,8.28,0,12.43.16.45,0,.89.58,1.34.9a5.39,5.39,0,0,1-1.46.43c-5.4.1-10.8.06-16.2.23-8.66.26-17.31.79-26,.94-11.28.2-22.57.16-33.86.19a28.34,28.34,0,0,0-4.48.1c2.84,2.6,5.58,5.32,8.54,7.78,9.31,7.74,19.75,13.25,31.78,15.35,2.88.5,5.86.45,8.77.79,3.12.37,6.21.92,9.31,1.36a13.72,13.72,0,0,0,2.48.15c3.5-.09,7-.24,10.52-.33a2,2,0,0,1,1.4.65c-3.41,1-6.89.48-10.62.62l12.56,5.18c-.92-4.15-1.75-7.89-2.59-11.65-4.26.67-8.13-.55-11.9-2.25l.07-.44,11.8,1.94c-.36-5.25-1-15.74-1.39-20.83l.55-.08c.27,1.49.88,8.37,1.17,10L394,48.27c-.61-6.55-1.84-12.91-6.47-18.08a2.52,2.52,0,0,0-2.68-.81,111.73,111.73,0,0,1-13.06,1.16c4.13-1.92,8.64-1.63,13.16-2.49-2.78-3-6.43-5-7.91-8.9-4.82,1.2-9.62,2.06-14.58,1.44,4.6-1.44,9.39-1.56,14.13-2.13-.32-2.4-.61-4.82-1-7.22a1.41,1.41,0,0,0-1-.8c-4.5-.26-9-.53-13.51-.64-3.49-.08-6.51-1-8.7-3.87s-5.25-3.73-8.89-3.54c-8.59.45-16.91,2.41-25.29,4.07a31.26,31.26,0,0,1-14.32-.76c-3.74-1-7.57-1.67-11.36-2.45a5.5,5.5,0,0,0-4.59,1.1c-3.18,2.41-6.4,4.76-9.58,7.16-2.26,1.71-4.43,3.55-6.76,5.15-4.38,3-6.36,7.5-7.51,12.35a73.06,73.06,0,0,1-8.19,20.34c-1.91,3.26-3.56,6.66-5.32,10A37.85,37.85,0,0,1,240,71.89a40,40,0,0,0-12.88,16.58A35.3,35.3,0,0,1,216.55,102c-6.11,5-12,10.29-18.11,15.52-.12.07-.79.32-1.14.54a11,11,0,0,0-1.23.68c-1.41.89-.59,1-2.07,1.78a3.44,3.44,0,0,0-1.23,1.55c-1.54,3.07-1.57,6.41-1.36,9.71.38,5.81,1,11.6,1.46,17.4.12,1.41.26,2.83.24,4.24a4.91,4.91,0,0,1-3.77,5c-1.54.49-3.13.85-4.71,1.26-3.49.91-6.21,3-7.25,6.39-1.72,5.62-5.31,9.64-9.8,13.11-1.49,1.15-2.87,2.45-4.27,3.72a22,22,0,0,1-15.52,5.83,11.71,11.71,0,0,0-5.11,1.25c-8.81,4.43-14.85,11.47-18.76,20.43-.16.37-.43,1.15-.62,1.49a9.09,9.09,0,0,1-1.21,2.22,13.64,13.64,0,0,1-5.26,4.82c-2.88,1.7-5.65,3.6-8.4,5.51-.52.36-.71,1.19-1.07,1.78a14.08,14.08,0,0,1-1.18,1.81c-2.78,3.24-3.12,5.22-1.47,9.23l4.82-8.15.48.23c-4.2,8.9-8.94,17.61-10.08,27.67-1.52-7.57-1.17-15.44-4.25-22.68,3,5.07,3.93,10.67,4.42,16.41,1.1-3.56,2.29-7,3.18-10.52a7,7,0,0,0-.3-4c-1.17-3.06-.35-5.62,1.38-8.14.69-1,1.17-2.14,1.8-3.19a4.09,4.09,0,0,1,1.11-1.29c3-2,6.09-4.09,9.22-6a10.59,10.59,0,0,0,4.62-4.65c-8.48,0-16.89-.21-25.29.06s-22.19-1.91-30.56-1.36c-2.11-.34,0-.89,0-1.09.4-.19,1.43,0,1.86,0,11.36-1.49,27.44.77,38.89.76,4.73,0,9.45,0,14.17.1a2.52,2.52,0,0,0,2.66-1.85,42.09,42.09,0,0,1,18.42-20.43,15.74,15.74,0,0,1,8.16-1.89A17.36,17.36,0,0,0,161,183.06c3.62-3,7.19-6.13,10.65-9.34A12.47,12.47,0,0,0,174.2,170c.86-1.77,1.45-3.68,2.16-5.53Zm226.3-94.3a76.76,76.76,0,0,1-8.29-21c-4.7,1.62-9.48,1.69-14.56,1.27,1,7.45,1.93,14.72,2.94,22a1.85,1.85,0,0,0,1.07,1.11,39.9,39.9,0,0,1,13.82,9.12,10,10,0,0,0,3,2.21,64.93,64.93,0,0,0,16.76,4.83,3.71,3.71,0,0,0-.34-.58c-2.81-3.32-5.61-6.66-8.47-9.94a2,2,0,0,0-1.44-.37c-1.73.13-3.46.35-5.19.54l-.06-.62c1.62-1.78,3.76-.3,5.68-.62-1.46-2.27-2.83-4.49-4.3-6.64a1.65,1.65,0,0,0-1.31-.37c-1.72.19-3.44.49-5.16.74C398.25,69.79,400.42,70.53,402.6,70.23Z"/><path class="cls-1" d="M414.35,225.77q-.28,5.79-.58,11.59c-.15,2.93-.27,5.87-.51,8.8a5.41,5.41,0,0,0,1.44,4.45,11,11,0,0,1,.95,1.39l-.34.41-2-1.55c-.15,1.38-.29,2.71-.44,4l-.41.14c.3-4.83-1.2-8.83-5.11-11.79V254l-.59,0c-.33-3.36-1-6.73-.88-10.06.13-2.94-1.3-4.77-3-6.92-2.24,6.49-2.56,13.16-3.77,19.9-2.69-10.6-4.59-21.15-9-31.07a15.15,15.15,0,0,1,1.36,1.77,57.51,57.51,0,0,1,5.5,14.51c.59,2.44,1.13,4.9,2,7.36.17-1.3.26-2.63.53-3.92.63-3.07,1.37-6.13,2-9.2a3,3,0,0,0,0-1.77c-2.12-4.56-4.43-9-6.45-13.64a46.33,46.33,0,0,0-9-13.54c-4.42-4.63-8.81-9.3-13.38-13.78a33.16,33.16,0,0,0-12.95-7.53,39.33,39.33,0,0,1-6.71-3,10.59,10.59,0,0,1-5.2-6.3c-1.37-5-2.41-10.17-3.58-15.26l.47-.13c.23.79.46,1.58.67,2.37s.43,1.73.63,2.6c.48,2.15,1,4.29,1.44,6.45,1.17,5.85,4.66,9.8,10.27,11.45,8.73,2.57,15.6,7.74,21.58,14.36,2.15,2.37,4.33,4.72,6.6,7,5.78,5.75,9.42,12.77,12.4,20.24,1.09,2.71,2.53,5.27,3.88,8.07,2-3.38,3.79-6.5,5.61-9.61l.52.16c0,.8,0,1.6,0,2.4-.26,4.24-.61,8.48-.78,12.72a4.85,4.85,0,0,0,.9,2.66c1,1.41,2.16,2.65,3.41,4.13.64-7.07,1.26-13.89,1.88-20.71Zm-8.8,13.11.34-.1.66-10.15a49.22,49.22,0,0,0-3.09,6.32,1.27,1.27,0,0,0,.07,1C404.16,237,404.87,237.91,405.55,238.88Z"/><path class="cls-1" d="M153.07,221.15l-1.41-2a53.76,53.76,0,0,1-7.2-15,11.28,11.28,0,0,1-.16-2.55c1.65,3.8,3.22,7.32,4.72,10.88a24.44,24.44,0,0,0,12.61,12.83c4.87,2.31,9.84,4.4,14.85,6.63l2.7-4.73.26.11c-.56,1.75-1.13,3.5-1.73,5.39l2.5,1.23c.2-2.47.39-4.74.57-7h.51c.09,2.06.3,4.13.23,6.19,0,1,.17,1.6,1.18,2,2.17.9,4.28,1.94,6.57,3-.4-3.15-.79-6.19-1.18-9.24l.42,0c.58,2.89,1.1,5.81,1.8,8.68a5.28,5.28,0,0,0,1.39,2.25,44.73,44.73,0,0,1,4.13,4.44c-2.21-.28-2.89-2.68-5-3.38.37,3.59.72,7.12,1.07,10.65l-.4.05c-1.22-2.14-1.22-4.57-1.57-6.91a9,9,0,0,1-.21-2.35c.29-2.35-1.12-3.35-3-4.12s-3.41-1.55-5-2.3c-.76,5.78-1.51,11.4-2.26,17l-.66-.07c.26-2.56.54-5.11.77-7.66s.43-4.81.56-7.21c.16-3,.13-3-3.21-4.17q-4.11,11.56-8.21,23.11l-.28,0a12,12,0,0,1,.21-2.49c1.55-5.06,3.12-10.11,4.78-15.13.67-2,1.6-4,2.52-6.22-1.56-.78-3.15-1.64-4.81-2.37-2.49-1.1-5.13-1.9-7.52-3.19-3.31-1.79-6.43-3.91-9.64-5.89-.3-.18-.63-.33-1-.5Z"/><path class="cls-1" d="M271.74,189a92.09,92.09,0,0,1-15.51-4.79,2.42,2.42,0,0,1-1.16-.74c-1.15-1.15-2.24-2-2.67-3.53a60.34,60.34,0,0,1-1.78-16.06c-.05-7-.14-14-1.39-21a34.63,34.63,0,0,0-7.73-16.11c-3.39-4.13-7-8.14-9.81-12.65s-4.58-9.53-6.82-14.33c-.64-1.38-1.31-2.74-1.93-4.13a1.53,1.53,0,0,1-.05-1c.05-.13.6-.23.81-.12s.17.51.24.78.09.3.15.43c2.65,5.65,5,11.43,8,16.89a60.84,60.84,0,0,0,7.12,9.75c3.88,4.59,7.8,9.12,9.74,14.92a59.34,59.34,0,0,1,2.6,16.42c.27,6.34.34,12.69.7,19a53.27,53.27,0,0,0,1.3,7.1c.18,1,.84,1.26,1.74,1.76a16.32,16.32,0,0,0,2.36,1.15c2.08,1.06,5,3.19,8,3.87,2.11.48,4.18,1.19,6.27,1.79Z"/><path class="cls-1" d="M145,151.41c.7,10.11,1.6,24.23,2.3,34.34l-.16,0c-.37-1.88-.75-3.77-1.14-5.75-3.61.34-7.18.81-10.77,1s-7.17,0-10.75,0l0-.41,21.33-2-.72-7.45-20.25.7-.06-.58c3.35-.51,6.68-1.13,10-1.47s6.67-.38,10-.56v-12.4c-8.9,1.77-17.6,2.87-26.47,1.59a30.13,30.13,0,0,1,3-.52c7.37-.57,14.74-1.1,22.12-1.66a7.14,7.14,0,0,0,1.39-.42C144.9,155.69,144.84,151.54,145,151.41Z"/><path class="cls-1" d="M419.62,216.94a55.29,55.29,0,0,1,4.59,18.49c.57,6.35,1.17,12.73.19,19.16-.21-1.33-.47-2.65-.63-4s-.22-2.82-.36-4.23c-.62-6.31-1.15-12.63-1.94-18.92a75.92,75.92,0,0,0-1.82-7.47c-.29-1.25-.4-2.55-.68-3.81a12.43,12.43,0,0,0-.72-1.69c-.2-.51-.34-1-.63-1.92,8.65,5.63,17.26,31.64,14.71,44.36-.35-2.35-.72-4.69-1-7-1-7-1.9-13.93-4.45-20.54A39.4,39.4,0,0,0,419.62,216.94Z"/><path class="cls-1" d="M98.26,152.36c4.38-.17,11.24-.16,15.6-.48,9-.66,18.11-1.26,27.13-2.27,7.92-.89,15.82-.63,23.73-.48,7.66.14,15.32.37,23,.58.56,0,3.75,0,4.38.46-.36.56-3.6.51-4.08.51-3.77,0-7.54-.11-11.31-.16-6.46-.1-12.92,0-19.36-.3-8.66-.36-17.16,1.12-25.73,1.75q-9.89.72-19.79,1.2c-3,.14-6,0-9,0-.74,0-3.93-.36-4.66-.51Z"/><path class="cls-1" d="M315.18,215.84c6.75,4.43,16.54,25.95,15.24,34.19-.52-1.28-.94-2.14-1.21-3-1.62-5.26-3.18-10.52-4.81-15.77a14.66,14.66,0,0,0-1.27-2.69,92.71,92.71,0,0,1,3.28,22.67c-.23-.91-.51-1.82-.69-2.74-.93-4.78-1.79-9.58-2.75-14.35a38.3,38.3,0,0,0-6.05-14.39c-.8-1.16-1.48-2.41-2.21-3.63Z"/><path class="cls-1" d="M320.57,244.16c-.38,1.51-.76,3-1.13,4.51l-.22,0a24.25,24.25,0,0,1,0-4.09,8.68,8.68,0,0,0-1.21-6.61,6.05,6.05,0,0,1-.5-1.45l.41-.26,1.61,1.44L318.05,227l.56-.09q1,6.09,2,12.17a5.4,5.4,0,0,0,.3,1.52c4,7.93,5.7,16.51,7.29,25.12.68,3.7,1.19,7.43,1.78,11.14l-.57.12c-.51-2-1.05-4-1.51-6-1.7-7.35-3.33-14.71-5.09-22A40.81,40.81,0,0,0,321,244Z"/><path class="cls-1" d="M272.69,250.69a173.34,173.34,0,0,1,2.07-31.93l-.52-.17c-1.81,4.48-3.61,9-5.47,13.57a6.39,6.39,0,0,1,0-.68,4,4,0,0,1,.13-.77c1-3.2,1.79-6.47,3-9.58.66-1.68,2.06-3.08,3.1-4.62a5.41,5.41,0,0,0,.66-1.37c.53-1.78,1-3.58,1.36-4.77C275.6,223.43,274.14,237.06,272.69,250.69Z"/><path class="cls-1" d="M66.6,234c-4.35,7.69-8.69,15.38-13.19,23.35a16.84,16.84,0,0,1,.8-2.5c2.36-4.72,4.64-9.5,7.21-14.11,1.79-3.19,4.08-6.1,6-9.23.85-1.4,1.31-3.05,2.29-4.52l-5.23,26.17c-.81-3.22-.1-6.36.49-9.49s1.32-6.34,2-9.51Z"/><path class="cls-1" d="M402.82,171.42c2.35,3.2,2.24,6.87,2.2,10.52,0,.79-.13,1.57-.18,2.35-.23,3.18-1.39,5.63-4.7,6.71a6.56,6.56,0,0,0-4,4.18c-1.58,4.32-3,8.7-4.49,13.07-.29.87-.3,1.84-.6,2.7-.1.32-.66.48-1,.71-.09-.38-.34-.79-.26-1.12.49-2,1-4,1.61-5.91,1.08-3.28,2.21-6.54,3.42-9.78a8.66,8.66,0,0,1,5.55-5.42,4.3,4.3,0,0,0,3-3.67,33.2,33.2,0,0,0-.13-11.72C403,173.17,403,172.29,402.82,171.42Z"/><path class="cls-1" d="M18.88,266.05c-2.39-3.47-3.56-7.43-4.76-11.38-2-6.42-4-12.84-7.24-18.74-1.31-2.37-3-4.52-4.53-6.78l-1.35-2,.31-.27c.3.23.62.44.9.69a36.26,36.26,0,0,1,7.73,11C12.63,244,17.77,261,18.88,266.05Z"/><path class="cls-1" d="M394,255.11c-2-7.11-3.9-14.33-6.18-21.41s-7.59-12.82-11.1-19.4C386.05,222.91,395.58,245.74,394,255.11Z"/><path class="cls-1" d="M467,221.86c.27,1.49.64,3,.79,4.48.56,5.89.87,11.81,1.64,17.67.57,4.24,1.73,8.4,2.62,12.59,0,.09,0,.2-.32.43-.74-1.78-1.56-3.54-2.21-5.35-2.32-6.41-2.48-13.12-2.69-19.83-.09-2.93-.29-5.86-.42-8.78a9.06,9.06,0,0,1,.09-1.16Z"/><path class="cls-1" d="M431.12,207.55c4.59-.75,9.15-1.62,13.75-2.23,5.41-.72,10.84-1.25,16.26-1.77a6.72,6.72,0,0,1,2.23.59,8.69,8.69,0,0,1-2.24.9q-12.66,1.43-25.34,2.72c-1.53.16-3.07.15-4.61.22Z"/><path class="cls-1" d="M428.78,221.33c11.09-1.16,21.82.07,32.54-1.6.58,1.17-.36,1.63-1.25,1.78a34.69,34.69,0,0,1-6.38.8c-7.76-.11-15.52-.39-23.28-.62A11,11,0,0,1,428.78,221.33Z"/><path class="cls-1" d="M432.05,152.54h30.72l.16.57a12,12,0,0,1-2.73.9,77.42,77.42,0,0,1-8.47.29c-6.59-.26-13.17-.69-19.76-1.05Z"/><path class="cls-1" d="M371.51,216.87c6.19,2.07,15.77,25,14.65,34.72-.19-.72-.39-1.44-.57-2.17-1.11-4.42-2.07-8.88-3.36-13.24-2-6.77-5.67-12.69-9.92-18.27Z"/><path class="cls-1" d="M48.83,258c-1.75-11.83-.78-23.28,5-34A107.08,107.08,0,0,0,48.83,258Z"/><path class="cls-1" d="M462.56,132.47a14.37,14.37,0,0,1-2.63.79c-4.69.48-9.39.88-14.09,1.29-4.11.37-8.23.72-12.36,1,4-1.94,26.47-4.65,28.91-3.59Z"/><path class="cls-1" d="M463,114.67a138.59,138.59,0,0,1-25.18.62C441.71,113.46,460.53,112.87,463,114.67Z"/><path class="cls-1" d="M139.05,222.66a133.49,133.49,0,0,0-9.57,35C130.09,245.31,132.1,233.31,139.05,222.66Z"/><path class="cls-1" d="M438.33,184.66l24.19-3.43c.19,1.37-.75,1.69-1.54,1.87a47.22,47.22,0,0,1-6.62,1.3c-5.3.47-10.63.75-15.94,1.1Z"/><path class="cls-1" d="M153,221.12c-.41,1.62-.69,3.28-1.24,4.84-2.77,7.73-3.2,15.76-3.18,23.85a26.52,26.52,0,0,1-.25,4.45c-1.38-10.94-1.48-21.74,3.85-31.85a12.76,12.76,0,0,1,.86-1.26Z"/><path class="cls-1" d="M33.75,258c-.87-2.21-1.9-4.38-2.6-6.64-2.27-7.29-4.42-14.62-6.62-21.93a19.1,19.1,0,0,1-.8-3c5.3,9.86,7,20.91,10.76,31.29Z"/><path class="cls-1" d="M163.74,155.72c8.28-.65,19.66-1.68,27.94-2.33l.17.77c-.68.26-4.44,1-5.13,1.15-5.31,1.29-10.72,1.15-16.12,1.19-2.27,0-4.56-.2-6.84-.32Z"/><path class="cls-1" d="M285.69,218c1,10.07-.38,20-1.72,29.91C283.37,237.87,285.39,228,285.69,218Z"/><path class="cls-1" d="M448.66,274c2-8.31,1.54-16.7.73-25.1C452.6,253,452.25,268.55,448.66,274Z"/><path class="cls-1" d="M332.8,40.08c-1.89-12-1-24.19-1.44-36.29l.66-.12A6.25,6.25,0,0,1,332.36,5c.13,2.76.24,5.53.31,8.31q.3,12.27.55,24.54c0,.74,0,1.48,0,2.23Z"/><path class="cls-1" d="M452.66,250.77a12.35,12.35,0,0,1,1.81,2.75,61.28,61.28,0,0,1,1.85,7.29c.82,4.43,1.47,8.89,2.18,13.34.08.51.09,1,.13,1.56l-.48.11c-.76-2.85-1.64-5.67-2.25-8.55-.57-2.72-.76-5.51-1.29-8.23S453.38,253.78,452.66,250.77Z"/><path class="cls-1" d="M167.93,123.11c7.14,0,15.09.14,22.54.14C188.42,125.6,172.5,124.79,167.93,123.11Z"/><path class="cls-1" d="M11.39,260.68s-9.74-26-9.83-26.2C7.55,242.39,9.48,251.53,11.39,260.68Z"/><path class="cls-1" d="M373.06,225.37c2.33,9.11,3.09,18.47,3.92,27.89a6.55,6.55,0,0,1-.67-1.55q-1.85-12.26-3.62-24.53a12.33,12.33,0,0,1,0-1.72Z"/><path class="cls-1" d="M226,232.45c-1.94,8.46-6.1,16.44-5.57,25.45C218.56,248.62,222,240.49,226,232.45Z"/><path class="cls-1" d="M88.8,229.33c3.3,6,6.23,12,6.9,18.85.23,2.38.53,4.75.8,7.13l-.59.1c-.91-4.42-1.6-8.9-2.79-13.24S90.26,233.61,88.8,229.33Z"/><path class="cls-1" d="M291.9,223.46c2.52,8.61,1.88,17.36,1.2,26.12l-.63,0c-.06-1.21-.17-2.43-.19-3.64-.09-6.29-.12-12.58-.25-18.86a25.63,25.63,0,0,0-.59-3.54Z"/><path class="cls-1" d="M208.06,256.4c.58-9.13,2.44-17.79,7-25.48Z"/><path class="cls-1" d="M158.19,226.38c-4.1,8.29-1.79,17-2.16,25.6-.9-6.62-2.11-13.23-1-19.94A8.23,8.23,0,0,1,158.19,226.38Z"/><path class="cls-1" d="M309.11,256.7c4.92,4.49,9.9,16.38,9.55,22.35-1.37-3.84-2.54-7.72-4.13-11.42S310.94,260.34,309.11,256.7Z"/><path class="cls-1" d="M446.43,264.92c.45-7,.09-14,2.18-20.85C448.66,251.1,448.41,258.09,446.43,264.92Z"/><path class="cls-1" d="M80.56,233.18c3.85,7.13,7.64,14.18,11.43,21.22l-.37.19C88.76,252.06,80,235.24,80.56,233.18Z"/><path class="cls-1" d="M148.51,222.12c-1.37,7.89-2.73,15.62-4.08,23.35C143.23,241.23,145.94,226.42,148.51,222.12Z"/><path class="cls-1" d="M261.63,219a16.72,16.72,0,0,0-2.39,8.62c-.14,3.4-.23,6.8-.36,10.2a4.68,4.68,0,0,1-.55,2.23,28.39,28.39,0,0,1-.26-2.9c.05-4.54.05-9.09.27-13.62A5,5,0,0,1,261.63,219Z"/><path class="cls-1" d="M140.47,221.83c-1.83,7.28-2.28,14.71-2.49,22.18C136.9,236.43,136.63,228.94,140.47,221.83Z"/><path class="cls-1" d="M280.56,217.54c1.54,1.5,3.18,19.24,2.16,26l-.39,0C281.73,234.79,281.14,226,280.56,217.54Z"/><path class="cls-1" d="M198.7,254.83a26.11,26.11,0,0,1-1.17-3.57c-.71-4-1.21-8.07-2-12.08-.46-2.44-1.25-4.83-2-7.57C196,235.35,199.8,251.8,198.7,254.83Z"/><path class="cls-1" d="M333.94,282.89a75.6,75.6,0,0,1,3.46-22.6l.77.13Z"/><path class="cls-1" d="M355.69,270.43c-.21-2.54-.47-5.07-.61-7.61-.05-.87-.14-2.07.36-2.59,2.12-2.21,1.3-6.12,4.88-7.75C357.12,258.2,356.84,264.4,355.69,270.43Z"/><path class="cls-1" d="M314.09,248.9c4.93,7.13,10.09,14.16,10.21,23.41C323.34,263.41,317.44,256.73,314.09,248.9Z"/><path class="cls-1" d="M202.84,255.05a27.64,27.64,0,0,1-1.34-3.76c-1-5.15-2.19-10.24-4.6-15a6.54,6.54,0,0,1-.31-1.06c4.54,5.94,5.94,12.68,6.87,19.58Z"/><path class="cls-1" d="M53.1,253.19c-1.28-4.23,3.71-17.91,8.54-23.35C59,237.86,53.58,244.63,53.1,253.19Z"/><path class="cls-1" d="M38,251.76a21.58,21.58,0,0,1-1.13-2.95c-1.2-5.3-2.32-10.63-3.49-15.94-.39-1.77-.84-3.54-1.1-5.34,2.87,7.81,4.28,16,6.36,24Z"/><path class="cls-1" d="M358,16.68c5.78-2.73,12-4,18.14-5.55C377.48,12.23,365.1,15.87,358,16.68Z"/><path class="cls-1" d="M315.75,22.09,332,21.38l.19.51a5.83,5.83,0,0,1-1.41.71,40.73,40.73,0,0,1-15.09.06Z"/><path class="cls-1" d="M213,251.94c-.34-6.56,2.62-15.89,6.86-21-.91,2.2-1.86,4.38-2.7,6.6s-1.69,4.62-2.37,7S213.66,249.3,213,251.94Z"/><path class="cls-1" d="M343.32,258.81c-1.28,7.4-2.33,14.82-1.67,22.35C340.39,273.58,339.88,266.06,343.32,258.81Z"/><path class="cls-1" d="M177.5,164.47c-4.64,2.81-9.76,2.55-14.86,2.45l-.08-.39c1.71-.36,3.41-.74,5.12-1.09,2.78-.55,5.55-1.1,8.33-1.61.6-.11,1.56-.74,1.44.7Z"/><path class="cls-1" d="M109.34,246.39a49.16,49.16,0,0,1,4.85-19.83l.44.1Q112,236.53,109.34,246.39Z"/><path class="cls-1" d="M352.93,247.16A54,54,0,0,0,346,268.47C345.81,260.59,347.5,253.3,352.93,247.16Z"/><path class="cls-1" d="M45.64,241.16c.17,1.27.4,2.54.48,3.82.2,3.08.36,6.16.46,9.24,0,.46-.38.93-.59,1.4-.29-.39-.75-.75-.83-1.17a60.76,60.76,0,0,1-.92-7.15L45,250l.23-.05v-8.73Z"/><path class="cls-1" d="M76.25,232l-1.64,21.69c-.26-7.31-.77-14.63,1.25-21.78Z"/><path class="cls-1" d="M333,30A30.66,30.66,0,0,1,318,28.66C323.09,28.11,328,29.18,333,30Z"/><path class="cls-1" d="M135.32,192.93c-5.17,1.74-10.24,1.68-15.48,1.3C121.41,193.11,133.63,192.64,135.32,192.93Z"/><path class="cls-1" d="M229.93,254.48c-1.28-5.5-.43-14.46,1.79-18.95C231.12,241.94,230.54,248.05,229.93,254.48Z"/><path class="cls-1" d="M251.11,245.86c-1.68-7.59-1.58-15.06,2.09-22.23A58.6,58.6,0,0,0,251.11,245.86Z"/><path class="cls-1" d="M204.36,239.25c1.61,2.31,3.83,13.05,3.16,16.16a7.44,7.44,0,0,1-.92-1.88c-.56-3.35-1-6.71-1.52-10.06C204.89,242.19,204.64,240.91,204.36,239.25Z"/><path class="cls-1" d="M116.52,229.5c-1,6-1.92,12.08-2.84,17.89A31.29,31.29,0,0,1,116.52,229.5Z"/><path class="cls-1" d="M140.73,240.76c-.87-5.75.63-14.55,3-17.62C142.67,229.16,141.7,235,140.73,240.76Z"/><path class="cls-1" d="M161.41,243.32l-.56-1h-.3l-.9,9.6c-.81-2.92-.75-9.47.11-12.08.15-.45.7-.77,1.06-1.16.28.39.75.76.81,1.18.16,1.11.14,2.25.19,3.38Z"/><path class="cls-1" d="M332,14.63a20.32,20.32,0,0,1-12.18.75C323.86,14,328,14.44,332,14.63Z"/><path class="cls-1" d="M316.92,35.41h15.66c-.92,1-9.64,1.44-15.62.5Z"/><path class="cls-1" d="M246.4,246.65c.92,4.38.58,8.43.08,12.61C245.14,258.31,245.07,248.85,246.4,246.65Z"/><path class="cls-1" d="M306.92,234.52c2.36,4.28,3.25,9,3.89,13.73C308.32,244,308.13,239.13,306.92,234.52Z"/><path class="cls-1" d="M299.78,245.25c.25-4.59.7-9.13,3.6-13l.44.12q-1.8,6.51-3.59,13Z"/><path class="cls-1" d="M379.15,45.64a20.47,20.47,0,0,1-12.33.74l0-.54,12.3-.74Z"/><path class="cls-1" d="M294.85,250.64q-.27-8-.55-16a48.27,48.27,0,0,1,1.18,16Z"/><path class="cls-1" d="M249.46,249l-1,14.36c-1.06-2.94-.59-12.49.41-14.37Z"/><path class="cls-1" d="M267.2,221.61c-4.3,4.09-3.85,9.51-5.36,14.26a37.19,37.19,0,0,1,1.9-11.93A3.26,3.26,0,0,1,267.2,221.61Z"/><path class="cls-1" d="M116.64,255.73c0-5-.36-10.07,2.53-14.57Q117.89,248.44,116.64,255.73Z"/><path class="cls-1" d="M41.39,249.64,42,247.1l.48,0c0,1.59,0,3.18,0,4.76,0,.32-.44.61-.67.92-.28-.26-.74-.48-.82-.79-.39-1.41-.69-2.84-1-4.27a43.26,43.26,0,0,1-.93-6.37Z"/><path class="cls-1" d="M330.37,265.69l1.83-12.38.57.08A31.41,31.41,0,0,1,331,265.77Z"/><path class="cls-1" d="M259.05,249.4a22.45,22.45,0,0,1-1.7,10.44C256.55,256.13,257.48,252.71,259.05,249.4Z"/><path class="cls-1" d="M379.94,52.61a35.27,35.27,0,0,1-12.67.1C371.48,51.52,375.73,52.49,379.94,52.61Z"/><path class="cls-1" d="M235.23,242.41c-.24,4-.47,8-.72,12.36C233.11,251.51,233.43,244.15,235.23,242.41Z"/><path class="cls-1" d="M316.42,247.82l-2.61-14.66c2.1,4.61,2.78,9.54,3.34,14.49Z"/><path class="cls-1" d="M20.89,232.3c1.3,3,2.59,6.11,3.91,9.16.32.74.78,1.43,1.11,2.17.11.23.13.75,0,.79a1.48,1.48,0,0,1-.95.06,1.08,1.08,0,0,1-.47-.6c-1.4-3.79-2.79-7.6-4.19-11.4Z"/><path class="cls-1" d="M80.89,237.83,79.6,250.55c-.76-4.34-.82-8.63.79-12.78Z"/><path class="cls-1" d="M254.94,254.37l-1.26,11.18c-1.09-2.66-.49-9.37.72-11.27Z"/><path class="cls-1" d="M164.66,253.42l-1.11-2.17c-.2,2-.38,3.71-.55,5.43h-.38c-.06-2.58-.6-5.16.32-7.72a1.3,1.3,0,0,1,.93-.64c.18,0,.58.45.64.74.28,1.37.47,2.75.69,4.13Z"/><path class="cls-1" d="M473.12,253.41c-1.1-4.1-.43-8.27.07-12.43l.72,12.35Z"/><path class="cls-1" d="M298.07,240.66c1.35,1.45,2,9.62.76,11.51C297.76,248.2,298.85,244.36,298.07,240.66Z"/><path class="cls-1" d="M18.52,234.22q1.71,4.62,3.43,9.22c.36,1,.8,1.93,1.13,2.91.09.27-.08.62-.14.93a3.12,3.12,0,0,1-.87-.45,2.18,2.18,0,0,1-.37-.85Q20,240.51,18.32,235a3.57,3.57,0,0,1-.07-.74Z"/><path class="cls-1" d="M321.24,9.45h10.44v.49C328.19,10.37,324.71,11.27,321.24,9.45Z"/><path class="cls-1" d="M243.55,244.29a18.62,18.62,0,0,1-.24,9.66C242.88,250.71,242.62,247.49,243.55,244.29Z"/><path class="cls-1" d="M170.59,174.71a10.92,10.92,0,0,1-10.32.88C163.49,174.92,167.69,175.32,170.59,174.71Z"/><path class="cls-1" d="M124.09,256.58c-.26-3-.67-6.14,1.23-8.73l.58.13Q125,252.29,124.09,256.58Z"/><path class="cls-1" d="M128.32,248.22l-1.44,8.41c-.94-1.67-.22-7,1-8.49Z"/><path class="cls-1" d="M120.11,255.85c-.15-3.4-.25-6.91,1.82-10C121.32,249.16,120.72,252.51,120.11,255.85Z"/><path class="cls-1" d="M239.53,243.9c.75,2.06-.09,4-.44,6C238.64,247.82,238.4,245.8,239.53,243.9Z"/><path class="cls-1" d="M389.12,61.8l9.43-1.17c-1,1.85-6.36,2.7-9.37,1.62Z"/><path class="cls-1" d="M411.08,83.72a7.82,7.82,0,0,1-6.7,0Z"/></g></g></g></svg>