<?xml version="1.0" encoding="utf-8"?>
<!-- Generator: Adobe Illustrator 25.1.0, SVG Export Plug-In . SVG Version: 6.00 Build 0)  -->
<svg version="1.1" xmlns="http://www.w3.org/2000/svg" xmlns:xlink="http://www.w3.org/1999/xlink" x="0px" y="0px"
	 viewBox="0 0 429.2 353.7" style="enable-background:new 0 0 429.2 353.7;" xml:space="preserve">
<style type="text/css">
	.st0{display:none;}
	.st1{fill:#686767;}
</style>
<g id="Calque_2" class="st0">
</g>
<g id="Calque_1">
	<g id="Calque_2_1_">
		<g id="Calque_1-2">
			<path class="st1" d="M0.1,108c0-2.8-0.1-5.6,0-8.5c0.2-5.9,2.5-9.9,8.6-12.3c8.8-3.4,17.2-8.1,25.8-12c6.2-2.8,12.7-5,18.9-7.7
				c7.5-3.2,15.2-6,22.2-9.9c15.8-8.6,32.8-11.4,50.4-12.2c4.1-0.2,6.4-1.3,8.4-5.2c15.4-31.3,51.1-47.1,84.7-37.5
				c19.6,5.6,36.4,16.5,44.4,37c1.5,3.8,3.9,5.1,7.9,5.3c35.8,1.4,71.5,2.9,107.4,1.6c15.4-0.5,30.9,1.2,46.4,1.9
				c3.5,0.2,4.3,1.2,4,5.2c-1.2,19.1-2.2,38.2-2.4,57.4c-0.6,58.5-1,116.9-1.1,175.4c0,9.8-1.2,18.3-9,25.6
				c-9.8,9.3-18.6,19.7-27.7,29.7c-1.5,1.6-3.3,3.2-3.8,5.2c-2,6.8-7.3,6.2-12.4,6.2c-26.4,0.1-52.8,0.4-79.2,0.4
				c-21.8,0-43.6,0.5-65.4-0.5c-29.8-1.4-59.4-4.7-89.2-5.7c-18.7-0.6-37.6,1.8-56.4,2c-15.3,0.2-30.6-0.4-45.9-1.2
				c-8.7-0.5-10.2-2.2-11.3-10.8c-6-47.3-12.4-94.7-17.8-142.2c-3.2-27.6-5-55.4-7.4-83.1C-0.1,110.7,0.1,109.4,0.1,108L0.1,108z
				 M377.9,87.9c0.7,1.3,1.8,2.5,2,3.9c1,6.8,2.2,13.5,2.4,20.3c0.9,29,1.7,57.9,2.1,86.9c0.6,41.6,0.9,83.3,1.2,124.9
				c0,2.5-0.2,4.9-0.3,7.4c-5.3-28.3-2.8-56.8-4.6-85.1c-0.6,32.2-1.3,64.4,2.3,96.7c4.1-5.4,12.3-8.7,8.6-17.8
				c-0.2-0.8-0.2-1.7-0.1-2.5c-0.9-21-1.9-41.9-2.7-62.9c-1.2-32.1-2.6-64.2-3.5-96.3c-0.6-20.6-0.3-41.3-0.5-61.9
				c-0.1-6.2-0.7-12.5-1.1-20.1c-2.5,3-4.1,4.8-5.6,6.7c-0.7,2.2-2,4.3-2,6.5c0.8,20.4,2,40.8,2.8,61.3c0.4,10.8,0.1,21.7,0.1,32.6
				h1.5c0-8.6,0.2-17.2,0-25.8C379.6,137.7,378.7,112.8,377.9,87.9z M349.8,114.6h-8.2c-0.2,3.2-0.5,5.9-0.6,8.6l-1,0.1l-1.3-9.2
				l-10.8,0.9c1,29.2,1.9,57.9,2.9,86.6l-1.3,0.1c-0.7-5.8-1.7-11.5-2-17.3c-1.2-21.9-2.1-43.9-3.3-65.9c-0.3-1.5-0.8-3-1.5-4.3
				c-1.1-2.6-3.1-5-3.4-7.7c-0.6-4.4-0.2-8.9-0.2-13.9h-14l3,40.5l-2.5,0.2c-1.2-13.6-2.4-27.3-3.6-40.9h-6v9.6l-1.3,0.1
				c-0.5-3.2-1-6.4-1.5-9.7c-0.7-0.2-1.3-0.3-2-0.4c-29.6,0.5-59.3,1-88.9,1.6c-41.5,0.8-82.9,1.7-124.4,2.5
				c-8.5,0.2-8.7,0.4-6.2,8.4c0.3,1.6,0.5,3.2,0.6,4.8c-1.9-1.5-3.3-3.5-4.1-5.8c-0.6-2.2-1-4.4-1.3-6.7l-1.4,0.1
				c-0.6,6.1-1.4,12.1-1.6,18.2c-0.2,5.1-2,7.2-7.5,7.2c-6.7,0-13.5,1.2-20,1.8l-1.1,8.6h-0.7l-1.6-6.1c0.4,10.2,1.1,20.2,2.1,30.3
				c0.4,4.5,0.2,8.4-5.5,8.8l1.2,15.9l-1.6,0.2l-3.3-16.6l-6.5-0.4c0.7,12.5,1.4,24.4,2.1,36.3l-1.3,0.1c-0.4-1.8-0.9-3.5-1-5.3
				c-0.9-8.8-1.7-17.6-2.5-26.4c-0.5-6.1-0.9-6.4-8.3-6.2c4.4,42.2,8.9,84.3,13.4,126.8l6.9-0.6c-0.1-2.1-0.2-3.7-0.4-5.4
				c-1.2-11.4-2.5-22.8-3.5-34.3c-0.3-2.7,0.2-5.5,0.3-8.2h1.8l5,47.2l8.6-1.2l0.5-6.2c1.6,2.6,2.7,4.6,3.9,6.5s3.6,3.9,4,6.1
				c1.2,6.9,1.6,13.9,2.6,20.9c0.2,1.5,1.3,2.9,2,4.3c0.6-1.4,1-2.8,1.2-4.3c0.1-6.1,0.1-12.1,0.1-18.2l0.9-0.1
				c0.9,7.3,1.8,14.6,2.8,22.1c3-0.2,6.6,1.7,7.4-2.1c2,0.6,3.9,1.6,5.8,1.8c5.1,0.6,10.3,0.4,15.4,1.3c2.2,0.4,5.2,2.2,6,4.1
				c2.7,6.6,4.6,13.6,6.9,20.8c9.7-0.5,19-1.6,28.3-1.3c18.1,0.6,36.2,2.2,54.3,3.1c31.3,1.4,62.6,2.7,93.8,3.8
				c8.4,0.3,16.8-0.6,25.4-0.9v-14.4l1.3-0.1c0.6,4.4,1.2,8.9,1.8,13.7l6.4-0.4c-0.4-7.9-0.5-15.2-1.1-22.5
				c-0.4-4.9,1.8-6.7,6.4-6.3c6.1,0.5,12.2,0.8,18.3,1.2c0.3-1.9,0.6-3.5,0.8-5l0.7-0.1c0.4,1.9,0.8,3.7,1.3,5.8l6.2,1v-33.4h1.5
				c0.3,1.7,0.5,3.4,0.6,5.1c0.1,8.2,0.2,16.3,0.3,24.5c0,3.2,1,5.2,5.5,3.4c-1-10.3-2-20.7-3.2-31.1c-0.4-3.2-1-5.9,3.4-6.8
				c1-0.2,2.1-2.3,2.2-3.6c0.3-4,0.2-8,0.3-12c0.1-1.3,0.4-2.5,0.7-3.7l1.6,0.2v19c5.4-0.5,10-1,14.6-1.3c3.4-0.2,4.6-1.9,4.6-5.1
				c0-5.2,0.2-10.3,0.1-15.5c-0.5-34.3-1.1-68.6-1.7-102.9c-0.1-6.1,0-6.1-7.2-5.4v35c-1.2-1.7-1.8-3.6-1.8-5.6
				c-0.3-8.5-0.8-17-0.8-25.5c0-3.9-1.2-5.5-5.1-5.1c-1.5,0.1-2.9,0-5,0c0.9,28.6,1.8,56.8,2.7,85.1h-1.8
				C353.5,196.6,351.7,155.8,349.8,114.6z M156.4,56l-10.8-3.8l0.4-1.9c2.7,0.3,5.3,0.5,8,0.8c6.2,0.9,7.2,0.3,8.3-6l-8.4-4
				c6-3,12.9,3.8,16-4.3l-5.2-3.1l0.5-1.4l12.7,0.8l-1.6-3.7c6.3-0.9,12.4-1.2,18.1-2.8c19.5-5.3,48.7,11.7,48.8,34.2
				c0,1,1.3,2.8,2,2.8c7.9,0.2,15.8,0.1,23.6,0.1l0.4-1.9c-3.9-4.5-11.3,1-16.2-4.9l13.6-1.3l0.5-1.7c-1.5-0.7-3-1.7-4.6-1.8
				c-3.7-0.3-7.5-0.1-11.2-0.1l-0.1-2.1l12.3-2.8c-1.7-3-3.1-5.5-4.5-8c-4.6,1-9,2.6-13.8-1.6l10.9-2.2c-0.8-9.1-8.1-6.3-13.5-6.8
				l0.2-1.2l5.4-3.6c-2.5-2.9-4.6-4.5-8.6-2.4c-2.7,1.5-6.2,1.5-9.4,2.1l-0.4-1.7l9.8-4.4l-6.9-4.6l-6.1,2.2l-0.5-1.2l2.5-2.7
				c-15.4-10-44.3-11.1-67.7,3.8c-17.6,11.3-27.6,28.1-30,49.2h22.4c-4.6-2.5-10.2-1.4-14-5.5c3.4-0.3,6.5,0.3,9.7,0.4
				C151.8,59.3,156,61.5,156.4,56z M21.3,85.6c6.3,0,12.9,0,19.4,0c31.3,0.2,62.6,1,93.8,0.4c50.9-0.9,101.8-3.2,152.8-3.8
				c26.9-0.3,53.9,1.7,80.8,3c7.3,0.3,11.4-1.5,14.8-8.7c-21.8,0.4-43.6,0.7-65.4,1.4c-24.8,0.8-49.6,2.8-74.4,2.9
				C177.5,81,111.8,80.5,46,80.2c-3.8,0-7.9-1.7-11.4-0.8C29.7,80.6,25.3,83.6,21.3,85.6z M411.2,172.1h2
				c0.9-37.7,1.6-75.3,4.2-112.9l2.6,0.1c-1,39.7-2.6,79.5-2.7,119.2s1.3,79.7,2.1,119.5h2.3c1.2-80.9-2.2-161.9,3.3-244.1
				l-13.7,7.1L411.2,172.1z M409.3,314l1.6,0.6c2.1-4,6.1-8,6-11.8c-0.9-22.8-2.2-45.5-4.3-68.3c-5.1-55.6-5-111.4-4.8-167.2v-3.3
				l-1.5-0.5c-0.7,1.6-2,3.3-2,5c0.1,21.5,0.3,43,0.6,64.4c0.6,43.8,1.2,87.5,2.1,131.3C407.4,280.8,408.5,297.4,409.3,314z
				 M394.9,328.8c4.1-1.9,5.3-4.4,4.8-8.3c-0.9-6.9-1.5-13.9-1.8-20.9c-1.9-64.1-3.6-128.1-5.4-192.2c-0.3-10.5-0.9-21.1-1.3-31.6
				l-1.9-0.5c-1,1.9-2.9,3.9-2.8,5.8c0.6,13.6,2,27.2,2.3,40.8c1.6,59.7,3,119.5,4.5,179.2C393.5,310.3,394.3,319.4,394.9,328.8z
				 M354.3,93.9v54.2h9.2V98c1,1.5,1.5,3.3,1.6,5.1c0.5,13.3,1,26.6,1.5,39.9c0.2,6.4,0.5,6.7,7.6,5.9c-0.7-18.4-1.4-36.9-2.1-55
				L354.3,93.9z M7.3,93c1.3,0.1,2.5,0.3,3.8,0.2c23-0.3,45.9-0.5,68.9-1c40.8-0.9,81.5-2.2,122.3-2.9c37.6-0.7,75.2-0.9,112.9-1.3
				c7.3-0.1,14.6,0,21.9,0c-2.9-0.9-5.8-1.3-8.8-1.3c-32.5-0.3-64.9-0.9-97.4-0.5c-25.6,0.3-51.2,1.9-76.9,2.7
				c-24.1,0.7-48.2,1.5-72.4,1.7c-19.8,0.1-39.6-0.7-59.4-1.1c-0.8,0-1.9,0.2-2.5-0.1C14.3,85.8,11.4,91.2,7.3,93z M23.6,293.8
				c-0.2,0.5-0.4,0.6-0.3,0.8c2.2,15.3,4.3,30.6,6.6,45.8c0.4,1.5,1.6,2.8,3.1,3.3c4.8,0.9,9.8,1.3,14.2,1.9
				c-2.3-18.5-4.5-36.4-6.8-54.6l-8.3,1.6c2.1,17,4.1,33.5,6.1,50.1l-2.6,0.3c-2.3-16.6-4.6-33.1-6.8-50L23.6,293.8z M356.3,287.7
				c1,20.4,2,40.3,3.1,60.5h10.8v-61.5L356.3,287.7z M398.8,69.5c-5.4,1.8-5.9,2.5-4.6,8.1c0.5,1.9,0.8,3.9,0.9,5.9
				c1.4,35.9,2.9,71.9,4.1,107.8c1.4,41.4,2.5,82.9,3.8,124.3c0.2,1.6,0.4,3.2,0.8,4.8l0.5-0.2C402.5,236.6,400.7,153,398.8,69.5
				L398.8,69.5z M79.4,68.3L79.3,70c74.6,3.7,149.1,2.5,223.6-1.7L79.4,68.3z M232.3,44.2c-13.8-17.9-50.4-18-62.3,0H232.3z
				 M338.8,345.2l-2,0.1c-0.5-5.6-1.3-11.3-1.5-16.9c-0.1-2.8-1-4.3-3.9-4.5c-4.6-0.3-9.3-0.8-13.9-1.2c-3.4-0.3-4.4,1.1-4.1,4.4
				c0.5,5.5,0.8,10.9,0.9,16.4c0.1,4.4,2,5.5,6.3,3.9v-20.1h1.5c0.3,6.8,0.7,13.6,1,20.4h20.7c0-6.2-0.2-12,0.1-17.8
				c0.2-4.4-2.1-4.9-6-4.2C338,332.3,338.4,338.8,338.8,345.2L338.8,345.2z M413.9,56.3c-0.1-0.9-0.2-1.8-0.4-2.7H270
				c-0.3,2.6,1,4,4.6,3.6c4-0.3,8-0.4,12-0.3c36.6,0.3,73.2,0.6,109.9,1c3.3,0,6.6,0.1,9.9-0.2C408.9,57.5,411.4,57,413.9,56.3z
				 M15.6,160c-1.2-20.9-2.4-41.6-3.6-62.4H2.8c1.6,19,3.4,37.6,4.7,56.1C7.9,159.3,10.8,160.1,15.6,160z M44.9,119.8
				c4.3-0.2,8.1-0.7,11.9-0.6c3.1,0.1,4.3-1.3,4.1-4.1c-0.1-1.8-0.5-3.6-0.6-5.4c-0.3-4.2-2.1-8.6,3.4-12.6H35.9v24.5L42,120
				c-0.6-7.5-1.2-14.4-1.7-21.4l2-0.2L44.9,119.8z M393.1,68c-3,0-5.7-0.8-7.4,0.2c-6.5,3.7-13.3,2-20,2.3c-5.6,0.3-11.3,0.3-17,0.4
				c-44.9,1.6-89.9,3.1-134.8,4.7c-1.2,0.1-2.4,0.3-3.6,0.6c4,0.9,8,1.2,12.1,1c32-0.9,64-1.9,95.9-2.8c21.3-0.6,42.6-1.4,63.9-1.7
				C386.4,72.6,390,72.7,393.1,68z M67.3,320.9c1.3,7.6,2.4,14,3.3,20.3c0.6,3.9,2.4,5.3,6.3,4.8c3.6-0.5,7.3-0.2,10.9-0.8
				c1.4-0.2,3.5-2.1,3.5-3.3c0.1-5.3-0.1-10.6-0.7-15.9c-0.2-1.4-1.9-3.5-3.1-3.7C81.3,321.7,74.9,321.4,67.3,320.9z M14.8,97.3
				l3.8,63.7h6.9c-1.3-21.4-2.6-42.5-3.9-63.7L14.8,97.3z M402.6,62.9l-0.2-1.3L271.5,60c-0.3,2.9,1.1,3.9,4.1,3.8
				c40.3-0.1,80.7-0.1,121,0C398.7,63.7,400.6,63.4,402.6,62.9z M177.1,76.4v-0.9c-1.8,0-3.6,0-5.4,0c-22.8-0.3-45.6-0.2-68.4-0.8
				c-16.1-0.4-32.2-1.7-48.4-2.5c-5.6-0.3-9.2,1.1-11.8,4.2L177.1,76.4z M29.9,161.9l1.5-0.2c0.3-1.3,0.4-2.7,0.5-4.1
				c-0.8-9.6-1.6-19.3-2.5-28.9c-0.3-2.8-2.9-6.5,2.7-7c0.3,0,0.8-1.1,0.8-1.6c0-7.8,0-15.5,0-23.2c-8-1.2-8.3-1-7.9,6
				c1.1,18.1,2.2,36.2,3.5,54.3C28.8,158.9,29.2,160.4,29.9,161.9z M71.3,65.3H127v-5c-2.8,0-5.4,0-8,0c-11.2,0.1-22.4,0.9-33.4,0
				C79.5,59.7,75.9,62.1,71.3,65.3z M375.3,285.7l-1.5-0.5c-0.5,1.4-1.4,2.9-1.5,4.3c-0.1,6.5,0.1,13,0.2,19.4
				c0.3,12.1,0.8,24.2,1.1,36.4c0.1,2.9,0.9,4.5,4.5,3.2C377.3,327.6,376.3,306.6,375.3,285.7L375.3,285.7z M158.1,62.4l0.7,1h81.4
				l0.5-1.4c-1.2-0.6-2.4-1.7-3.6-1.7c-25-0.2-50-0.2-74.9-0.2C160.8,60.2,159.4,61.6,158.1,62.4z M161.5,54.6l0.4,1.8h76.7l0.1-1.3
				c-1.3-0.3-2.6-0.4-3.9-0.6c-22.6-0.7-45.2-1.4-67.8-1.9C165.2,52.6,163.4,53.9,161.5,54.6L161.5,54.6z M45.1,290.6
				c-1.1,1.2-1.5,1.5-1.4,1.7c2.1,16.3,4,32.6,6.3,48.9c0.7,5.1,2.2,5.6,7.2,4.1c-0.7-6.6-1.3-13.2-2.1-19.8c-0.1-1-0.9-2.8-1.4-2.8
				c-6.1,0.2-5-4.6-5.5-8.1C47.1,306.9,46.2,299.2,45.1,290.6L45.1,290.6z M346.9,347.8h10c-0.5-7.9-1-15.5-1.5-22.7l-8.5,2.1
				L346.9,347.8z M57.8,322.5l2.3,23h8.5c-0.8-6.3-1.7-12.2-2.3-18.1C65.5,320.8,65.3,320.6,57.8,322.5z M327.5,111.4l10.4-1.3V93.3
				h-11.5C326.8,99.4,327.1,105.1,327.5,111.4z M236.2,51.7c0.1-0.8,0.3-1.7,0.4-2.5c-7.3-2.4-15-1.1-22.5-1
				c-8.1,0.2-16.3,0.1-24.4,0.2c-7.7,0-15.4,0-23.1,0v1.6L236.2,51.7z M351.2,93.5L340.6,93c0.3,6.2,0.5,11.6,0.8,17h9.8L351.2,93.5
				z M87.9,57.3c13,0,25.7,0,38.3-0.1c0.9,0,1.7-1.1,2.6-1.7l-0.5-1.5c-6.8,0-13.5,0-20.3,0S94.1,51.7,87.9,57.3z M342.4,87.9
				l-0.1,0.7h24.8v-0.7H342.4z"/>
			<path class="st1" d="M342.4,87.9h24.7v0.7h-24.8L342.4,87.9z"/>
			<path class="st1" d="M255,213.1c-12.7,15-36.3,8.7-45.6-4.1c-15.7-21.5-6.4-52.7,11.8-64.3c11.7-7.5,24.4-6.8,36.7-0.7
				c16.9,8.4,28.3,21.8,33.4,39.7c6,20.7,7.6,42.5,4.6,63.8c-3,20.9-12.4,39.2-26.1,55.2c-8.4,9.7-18.5,14.4-31.5,14.3
				c-8,0-14.5-1.5-20.2-7.3c-6.7-6.8-8.3-12.3-2.4-22.9c3-5.3,8-9.8,12.6-13.9c12.3-10.8,21.5-23.8,26.7-39.1
				c2.1-6.3,1.3-13.6,1.8-20.5L255,213.1z M293.8,228c-1.2-10.8-1.9-21.6-3.6-32.2c-3.5-22.4-15.4-39.1-35.8-49.2
				c-14-7-30.8-3.9-40,8.4c-4,5.3-6.4,12-8.4,18.5c-4,13.3-0.6,25.4,8.3,35.9c10.3,12.1,29.8,12,39.5,0c0.6-0.7,1.9-1.8,2.1-1.6
				c1.1,0.7,1.9,1.6,2.3,2.8c2.2,9,3.4,18.3-0.5,27c-6.8,15.1-15.1,29.2-28.5,39.8c-3.9,3.1-7.4,6.7-10.3,10.8
				c-5.5,7.6-4.3,14.5,2.8,20.6c3.8,3.3,8,4.4,13.1,4.8c16.3,1.1,27.8-6.1,36.8-18.8C285.9,274.6,294.5,252.9,293.8,228z"/>
			<path class="st1" d="M164.8,212.4c19.9,20.1,25.3,44.3,22.7,71c-2.2,23-28.6,39.2-50,35.4c-3.1-0.7-6-2.1-8.5-4
				c-22.5-15.2-29.5-37.8-19.5-63.4c4.6-11.8,8.7-23.8,18.3-33c-17.9-9.6-27.2-24.1-28.1-43.2c-0.9-18.3,8.9-40.5,36.7-39.4
				c12.7,0.5,25.6,10.6,30.6,25.1C173,178.3,173.1,195.6,164.8,212.4z M167.8,186.8c0-13.8-2.8-25.1-9.2-34.1S143.6,138.3,132,139
				c-12.5,0.8-21.3,6.7-26.1,18.4c-6.9,17.4-2.2,37.3,11.8,49.7c3.1,2.9,6.8,5.2,10.7,6.8c4.4,1.6,5.3,2.3,2.1,5.8
				c-8.6,9.8-13.6,21.5-18.1,33.6c-8.8,23.8-2.3,44.8,19,58.7c3.6,2.3,7.7,3.7,12,3.9c13.3,0.3,24.4-5.5,32.7-15.4
				c3.9-4.9,6.6-10.7,7.9-16.9c2.3-10.1,1.3-20.5-1.2-30.7c-3.6-14.4-8.6-28.1-21.1-37.5c-0.8-0.6-1-3.1-0.4-4.1
				C166,203.4,167.5,194.9,167.8,186.8L167.8,186.8z"/>
			<path class="st1" d="M315,162.8c-1-22.4-2.1-44.9-3.1-67.3l2.8-0.1l2.7,67.4L315,162.8z"/>
			<path class="st1" d="M342.5,158.3c2.5,18.5,1.7,37.1,2,55.7l-1.8,0.1l-2.4-55.5L342.5,158.3z"/>
			<path class="st1" d="M369.7,261.7v-45.6h1v45.7L369.7,261.7z"/>
			<path class="st1" d="M52.2,114.5V103l1.2-0.1l0.7,11.5L52.2,114.5z"/>
			<path class="st1" d="M77.5,326.4c1.1,5.1,2.2,10.3,3.4,15.9C76.8,340.2,75.7,335.8,77.5,326.4z"/>
			<path class="st1" d="M86.6,329.9l2.9,10l-1.7,0.5c-3-2.8-2.1-6.7-2.7-10.2L86.6,329.9z"/>
			<path class="st1" d="M247,175.8c-0.1,5-4.1,9.4-8.6,9.3c-4.9,0-10.1-5.6-10.1-10.7c0-4.7,4.7-10.1,8.7-10
				C242.2,164.5,247.2,170.3,247,175.8z M244.4,176.5c-0.9-4.7-4.6-9.2-7.6-8.2c-2.1,0.7-4.3,3.4-5,5.7c-0.9,3.1,3.5,8.2,6.4,7.4
				C240.6,180.7,242.4,178.2,244.4,176.5L244.4,176.5z"/>
			<path class="st1" d="M147.6,280.1c-8.2,0-14-5.9-14-14.3c-0.1-7.9,7.3-15.6,14.6-15.5c5.3,0.1,11.9,10,11.9,17.8
				C160,275.5,155.1,280.2,147.6,280.1z M147.8,276.4c5.7-0.1,8.6-3.1,8.5-8.7c-0.2-6.3-4.9-13.4-9-13.5c-4.6-0.1-10,6.4-9.9,12
				C137.4,272.4,141.6,276.5,147.8,276.4L147.8,276.4z"/>
			<path class="st1" d="M135.1,166.8c4.8,0.1,9,5.1,9,10.7c0,5.1-3.1,8.2-8,8.1c-6.2-0.2-10.7-4.6-10.6-10.3
				C125.7,170.2,129.6,166.7,135.1,166.8z M140.5,178.7c-0.1-5.4-2.8-8.7-6-8.3s-5.4,1.6-5.5,5.2c0.1,3.5,3.1,6.2,6.5,6
				c0.2,0,0.3,0,0.5,0C138,181.4,139.6,179.4,140.5,178.7L140.5,178.7z"/>
		</g>
	</g>
</g>
</svg>
