<svg xmlns="http://www.w3.org/2000/svg" viewBox="0 0 429.22 353.71"><defs><style>.cls-1{fill:#fff;}</style></defs><g id="Calque_2" data-name="Calque 2"><g id="Calque_1-2" data-name="Calque 1"><path class="cls-1" d="M.14,108c0-2.82-.07-5.64,0-8.46.17-5.94,2.47-9.95,8.55-12.32,8.82-3.44,17.16-8.08,25.83-12,6.21-2.77,12.66-5,18.93-7.68,7.47-3.17,15.16-6,22.24-9.92C91.45,49,108.53,46.26,126.1,45.47c4.1-.18,6.42-1.28,8.36-5.23A72.23,72.23,0,0,1,219.11,2.76c19.64,5.55,36.45,16.53,44.44,37,1.5,3.83,3.89,5.14,7.87,5.29,35.77,1.37,71.52,2.86,107.36,1.62,15.42-.53,30.92,1.21,46.38,1.88,3.49.15,4.27,1.16,4,5.17C428,72.79,427,91.94,426.8,111.08q-.9,87.71-1.08,175.41c0,9.77-1.16,18.29-9,25.63-9.84,9.27-18.56,19.73-27.71,29.72-1.45,1.59-3.27,3.24-3.84,5.17-2,6.78-7.27,6.2-12.42,6.23-26.42.13-52.83.36-79.24.37-21.8,0-43.62.45-65.38-.55-29.76-1.37-59.44-4.68-89.21-5.71-18.74-.65-37.57,1.75-56.37,2-15.3.22-30.63-.43-45.92-1.21-8.73-.45-10.23-2.18-11.34-10.8C19.27,290,12.94,242.6,7.45,195.14c-3.19-27.62-5-55.4-7.39-83.11-.12-1.32,0-2.66,0-4ZM377.87,87.91c.68,1.3,1.78,2.53,2,3.9,1,6.76,2.18,13.53,2.39,20.32.89,29,1.68,57.92,2.1,86.88.6,41.64.85,83.28,1.22,124.92,0,2.46-.21,4.91-.32,7.37-5.34-28.27-2.81-56.76-4.57-85.06-.57,32.21-1.33,64.41,2.33,96.68,4.14-5.38,12.28-8.67,8.58-17.81a8.11,8.11,0,0,1-.11-2.48c-.89-21-1.87-41.92-2.68-62.88-1.24-32.11-2.6-64.22-3.48-96.33-.57-20.64-.29-41.3-.55-61.95-.07-6.24-.66-12.47-1.09-20.14-2.53,3-4.1,4.85-5.64,6.72-.69,2.15-2,4.34-2,6.46.82,20.43,2.05,40.84,2.8,61.27.4,10.84.07,21.7.07,32.55h1.51c0-8.58.22-17.17,0-25.75C379.65,137.69,378.72,112.8,377.87,87.91ZM349.8,114.63h-8.2c-.24,3.18-.45,5.89-.65,8.6l-1,.07-1.28-9.15-10.84.94c1,29.21,1.94,57.89,2.9,86.57l-1.34.06c-.69-5.78-1.71-11.54-2-17.33-1.19-21.95-2.12-43.91-3.25-65.86a13.7,13.7,0,0,0-1.54-4.34c-1.14-2.59-3.06-5-3.41-7.72-.58-4.39-.16-8.9-.16-13.86H305.06l3,40.47-2.47.18q-1.82-20.47-3.62-40.89H296V102l-1.3.06c-.51-3.19-1-6.39-1.54-9.67a10.35,10.35,0,0,0-2-.39q-44.47.77-88.94,1.57c-41.47.81-82.93,1.73-124.4,2.52-8.47.16-8.74.42-6.2,8.42a26.82,26.82,0,0,1,.6,4.77,12.24,12.24,0,0,1-4.12-5.78,49.11,49.11,0,0,1-1.28-6.67l-1.44.12C64.8,103,64,109,63.8,115.1c-.17,5.14-2,7.22-7.48,7.2-6.72,0-13.45,1.18-20,1.83l-1.13,8.62h-.73l-1.59-6.07C33.28,136.84,34,146.92,35,157c.42,4.52.21,8.4-5.53,8.82l1.18,15.86-1.64.24-3.3-16.63-6.52-.45c.72,12.51,1.42,24.43,2.11,36.35L20,201.3c-.35-1.75-.85-3.49-1-5.26-.87-8.78-1.72-17.57-2.47-26.36-.52-6.06-.87-6.44-8.26-6.16,4.45,42.19,8.88,84.3,13.36,126.79l6.86-.64c-.15-2.11-.23-3.74-.4-5.37-1.19-11.42-2.48-22.84-3.55-34.28-.26-2.71.2-5.48.33-8.22h1.76l5,47.24,8.6-1.23.5-6.24c1.56,2.6,2.68,4.59,3.93,6.51s3.62,3.88,4,6.06C49.87,301,50.31,308,51.26,315c.21,1.5,1.32,2.87,2,4.3a18,18,0,0,0,1.17-4.3c.13-6.06.06-12.12.06-18.18l.88-.14c.92,7.3,1.84,14.59,2.78,22.09,3-.18,6.61,1.74,7.39-2.09,2,.64,3.88,1.58,5.84,1.79,5.13.56,10.35.44,15.4,1.34,2.24.4,5.24,2.18,6,4.1,2.69,6.62,4.56,13.59,6.86,20.8,9.72-.51,19-1.64,28.29-1.33,18.13.61,36.22,2.22,54.34,3.06q46.91,2.16,93.85,3.79c8.4.28,16.84-.59,25.35-.94V334.91l1.32-.14c.59,4.44,1.19,8.87,1.84,13.68l6.36-.39c-.35-7.87-.54-15.17-1.06-22.45-.35-4.9,1.77-6.68,6.44-6.32,6.08.48,12.18.79,18.29,1.18.32-1.92.57-3.46.82-5l.69-.06c.41,1.86.83,3.71,1.29,5.8l6.18,1v-33.4l1.52,0a49.24,49.24,0,0,1,.61,5.1c.14,8.16.18,16.32.26,24.49,0,3.21,1,5.16,5.5,3.44-1-10.3-1.95-20.71-3.17-31.08-.38-3.24-1-5.91,3.37-6.8,1-.2,2.06-2.33,2.17-3.65.34-4,.18-8,.33-12a24.25,24.25,0,0,1,.71-3.71l1.64.2v19c5.44-.5,10-1,14.6-1.29,3.44-.19,4.61-1.92,4.58-5.15-.05-5.16.21-10.33.13-15.49q-.8-51.46-1.67-102.92c-.09-6.1,0-6.1-7.17-5.45v35a10,10,0,0,1-1.79-5.65c-.34-8.49-.8-17-.77-25.46,0-3.91-1.21-5.54-5.11-5.15-1.45.14-2.93,0-4.95,0,.91,28.55,1.81,56.82,2.71,85.09l-1.76,0C353.55,196.55,351.69,155.83,349.8,114.63ZM156.39,56l-10.82-3.8.44-1.9c2.67.28,5.34.46,8,.85,6.23.92,7.2.25,8.34-5.95l-8.36-4c6-3,12.91,3.75,16-4.28l-5.24-3.1.52-1.43,12.69.78-1.63-3.74c6.3-.92,12.39-1.2,18.14-2.76,19.54-5.32,48.66,11.72,48.78,34.22,0,1,1.26,2.78,2,2.8,7.88.2,15.76.12,23.63.12l.36-1.9c-3.91-4.54-11.33,1-16.18-4.92l13.59-1.28L267.1,54c-1.52-.65-3-1.74-4.57-1.85-3.72-.27-7.48-.09-11.22-.09L251.17,50l12.32-2.76c-1.69-3-3.1-5.55-4.49-8-4.65,1-9,2.64-13.78-1.64l10.92-2.16c-.81-9.12-8.06-6.28-13.49-6.76l.23-1.2,5.41-3.57c-2.49-2.86-4.61-4.48-8.57-2.37-2.72,1.45-6.21,1.48-9.36,2.15l-.42-1.72,9.79-4.4L232.84,13l-6.12,2.16-.54-1.2,2.49-2.69C213.27,1.24,184.37.16,161,15.12c-17.58,11.26-27.65,28.14-30,49.24h22.36c-4.57-2.54-10.16-1.43-14-5.52,3.36-.34,6.54.31,9.74.42C151.83,59.35,156,61.54,156.39,56ZM21.31,85.59c6.27,0,12.85,0,19.43,0,31.28.18,62.58,1,93.85.45,50.93-.89,101.84-3.24,152.77-3.81,26.92-.3,53.89,1.74,80.82,3,7.3.35,11.39-1.53,14.84-8.71-21.8.45-43.58.69-65.35,1.39-24.79.8-49.57,2.82-74.35,2.9C177.53,81,111.75,80.5,46,80.18c-3.83,0-7.93-1.7-11.43-.79C29.7,80.64,25.32,83.63,21.31,85.59Zm389.85,86.56,2,0c.89-37.67,1.59-75.35,4.18-112.94l2.62.09c-1,39.74-2.63,79.48-2.74,119.23s1.32,79.67,2.07,119.51l2.29,0c1.24-80.9-2.23-161.87,3.29-244.08l-13.69,7.11ZM409.28,314l1.64.59c2.1-3.95,6.14-8,6-11.83-.87-22.77-2.24-45.55-4.34-68.25-5.14-55.63-5-111.39-4.8-167.17V64.09l-1.46-.52c-.68,1.65-2,3.3-2,4.95q.16,32.22.64,64.43c.63,43.77,1.18,87.54,2.06,131.31C407.38,280.84,408.51,297.4,409.28,314ZM394.9,328.84c4.1-1.94,5.27-4.36,4.76-8.28a206.15,206.15,0,0,1-1.75-20.9q-2.78-96.08-5.36-192.17c-.3-10.54-.88-21.08-1.33-31.61l-1.93-.49c-1,1.94-2.92,3.91-2.84,5.8.57,13.62,2,27.2,2.33,40.82,1.62,59.73,3,119.47,4.49,179.21C393.51,310.29,394.33,319.35,394.9,328.84ZM354.3,93.91v54.17h9.17V98a9.72,9.72,0,0,1,1.57,5.08q.79,20,1.46,39.93c.22,6.44.48,6.69,7.63,5.85-.71-18.42-1.43-36.9-2.13-55ZM7.29,93c1.26.09,2.51.26,3.76.24,23-.31,45.92-.5,68.87-1,40.78-.89,81.54-2.17,122.32-2.93,37.61-.69,75.24-.92,112.86-1.33,7.29-.08,14.59,0,21.88,0a29.36,29.36,0,0,0-8.8-1.29c-32.46-.25-64.92-.87-97.37-.53-25.63.28-51.23,1.89-76.86,2.68-24.11.74-48.24,1.52-72.37,1.66-19.79.11-39.58-.7-59.37-1.1-.84,0-1.86.24-2.47-.14C14.31,85.84,11.37,91.18,7.29,93ZM23.56,293.79c-.22.49-.36.65-.34.79,2.16,15.28,4.27,30.58,6.62,45.84a5,5,0,0,0,3.1,3.3c4.83.92,9.76,1.32,14.24,1.86-2.31-18.53-4.53-36.37-6.81-54.61l-8.32,1.58c2.08,17,4.1,33.55,6.13,50.09l-2.6.34C33.31,326.42,31,309.86,28.74,293Zm332.76-6.12c1,20.41,2,40.28,3.06,60.47h10.8V286.65Zm42.51-218.2c-5.39,1.77-5.85,2.52-4.6,8.14a34.25,34.25,0,0,1,.94,5.92c1.4,35.93,2.88,71.86,4.09,107.81,1.39,41.43,2.52,82.87,3.81,124.31a35,35,0,0,0,.79,4.83l.54-.19Q401.61,194.76,398.83,69.47ZM79.44,68.28,79.33,70c74.55,3.69,149.07,2.46,223.57-1.71ZM232.3,44.18c-13.78-17.94-50.4-18-62.3,0Zm106.45,301-2,.14c-.54-5.64-1.25-11.26-1.54-16.91-.14-2.83-1-4.28-3.93-4.47-4.64-.3-9.27-.76-13.9-1.24-3.35-.34-4.39,1.13-4.11,4.36.46,5.46.79,10.94.89,16.42.08,4.39,1.95,5.52,6.25,3.93V327.34l1.5,0c.33,6.79.67,13.57,1,20.41h20.67c0-6.2-.18-12,.06-17.77.18-4.41-2.06-4.92-6-4.23C338,332.29,338.4,338.76,338.75,345.22ZM413.87,56.35c-.12-.9-.23-1.8-.35-2.69H270c-.28,2.61,1,4,4.62,3.63a116.46,116.46,0,0,1,12-.32q54.93.45,109.85,1c3.31,0,6.64.12,9.93-.15A65.46,65.46,0,0,0,413.87,56.35ZM15.59,160c-1.2-20.92-2.38-41.58-3.58-62.38H2.81c1.63,19,3.43,37.55,4.7,56.11C7.89,159.31,10.77,160.07,15.59,160Zm29.29-40.24c4.3-.24,8.11-.67,11.9-.58,3.13.07,4.25-1.35,4.14-4.14-.08-1.8-.46-3.59-.61-5.4C60,105.43,58.24,101,63.74,97H35.91V121.5L42,120c-.6-7.52-1.15-14.45-1.71-21.38l2-.17ZM393.14,68c-2.95,0-5.69-.83-7.41.15-6.45,3.65-13.32,2-20,2.3-5.65.28-11.32.25-17,.45q-67.41,2.33-134.82,4.7a31.32,31.32,0,0,0-3.58.56,44.51,44.51,0,0,0,12.05,1q48-1.38,95.9-2.82c21.31-.63,42.61-1.41,63.92-1.69C386.41,72.57,390,72.73,393.14,68ZM67.35,320.85c1.27,7.62,2.44,14,3.33,20.34.55,3.9,2.42,5.32,6.31,4.84,3.62-.45,7.34-.16,10.91-.78,1.37-.24,3.48-2.09,3.51-3.25a114,114,0,0,0-.68-15.89c-.15-1.37-1.88-3.5-3.08-3.66C81.29,321.66,74.86,321.38,67.35,320.85ZM14.81,97.29,18.59,161h6.86c-1.29-21.44-2.57-42.48-3.85-63.67Zm387.8-34.35-.18-1.35L271.52,60c-.25,2.93,1.13,3.86,4.13,3.85q60.48-.09,121,0A40.05,40.05,0,0,0,402.61,62.94ZM177.06,76.42l0-.87c-1.82,0-3.63,0-5.44,0-22.82-.25-45.64-.24-68.45-.84C87.06,74.29,70.94,73,54.81,72.19c-5.59-.27-9.16,1.14-11.84,4.23Zm-147.2,85.5,1.47-.18a20.67,20.67,0,0,0,.45-4.1C31,148,30.17,138.39,29.3,128.77c-.25-2.8-2.94-6.46,2.73-7,.33,0,.81-1.06.82-1.62,0-7.77,0-15.54,0-23.18-8-1.18-8.27-1-7.85,6q1.62,27.18,3.48,54.34A21.68,21.68,0,0,0,29.86,161.92ZM71.3,65.33H127v-5c-2.81,0-5.43,0-8,0-11.16.08-22.38.93-33.44,0C79.5,59.74,75.9,62.13,71.3,65.33Zm304,220.32-1.48-.46c-.51,1.44-1.44,2.88-1.46,4.34-.07,6.48.07,13,.24,19.44.33,12.12.75,24.23,1.09,36.35.07,2.85.92,4.46,4.53,3.23Q376.77,317.08,375.3,285.65ZM158.05,62.42l.67,1h81.43l.48-1.4c-1.19-.58-2.38-1.67-3.57-1.68q-37.47-.24-74.95-.17C160.75,60.15,159.4,61.63,158.05,62.42Zm3.46-7.81.45,1.83h76.69l.14-1.26a35.42,35.42,0,0,0-3.95-.56c-22.58-.7-45.17-1.41-67.76-1.94C165.24,52.64,163.37,53.94,161.51,54.61Zm-116.4,236c-1.07,1.23-1.47,1.48-1.44,1.68,2.06,16.29,4,32.59,6.33,48.85.72,5.11,2.18,5.6,7.18,4.06-.69-6.64-1.32-13.22-2.1-19.78-.12-1-.93-2.77-1.38-2.76-6.12.16-5-4.61-5.52-8.06C47.07,306.89,46.2,299.19,45.11,290.56ZM346.88,347.8h10q-.76-11.88-1.46-22.69l-8.5,2.1ZM57.81,322.53l2.26,23h8.46c-.83-6.32-1.73-12.22-2.33-18.15C65.52,320.78,65.35,320.58,57.81,322.53Zm269.7-211.17,10.43-1.27V93.25H326.48C326.83,99.38,327.15,105.11,327.51,111.36Zm-91.3-59.64c.12-.84.25-1.69.37-2.53-7.3-2.39-15-1.14-22.54-1-8.13.16-16.27.13-24.41.16-7.71,0-15.42,0-23.13,0l0,1.57Zm115,41.82L340.64,93c.3,6.18.55,11.55.82,17h9.79ZM87.89,57.35c13,0,25.65,0,38.25-.07.87,0,1.73-1.08,2.6-1.65l-.47-1.51c-6.77,0-13.54,0-20.31,0S94.1,51.73,87.89,57.35ZM342.43,87.9l-.14.68h24.79l0-.68Z"/><path class="cls-1" d="M342.43,87.9h24.68l0,.68H342.29Z"/><path class="cls-1" d="M255,213.07c-12.72,15-36.3,8.7-45.63-4.09-15.68-21.49-6.39-52.7,11.75-64.25,11.74-7.46,24.44-6.82,36.74-.73,16.87,8.36,28.3,21.79,33.41,39.73a152.62,152.62,0,0,1,4.58,63.82c-3,20.89-12.36,39.17-26.15,55.23-8.37,9.74-18.52,14.39-31.5,14.34-8,0-14.48-1.47-20.24-7.33-6.73-6.84-8.28-12.31-2.35-22.94,3-5.34,8-9.78,12.65-13.91,12.28-10.8,21.53-23.76,26.74-39.09,2.13-6.3,1.27-13.61,1.77-20.46ZM293.83,228c-1.17-10.75-1.9-21.57-3.6-32.24-3.55-22.36-15.35-39.06-35.78-49.24-14-7-30.79-3.89-40,8.39-4,5.29-6.4,12-8.35,18.47-4,13.32-.55,25.43,8.27,35.86,10.25,12.13,29.78,12,39.46,0,.58-.71,1.95-1.78,2.14-1.63a6,6,0,0,1,2.35,2.8c2.16,9,3.42,18.32-.5,27-6.83,15.08-15.1,29.25-28.53,39.76A53.46,53.46,0,0,0,219,287.94c-5.5,7.65-4.3,14.49,2.75,20.63,3.8,3.31,8,4.4,13.13,4.75,16.26,1.11,27.78-6.12,36.8-18.76C285.91,274.64,294.51,252.91,293.83,228Z"/><path class="cls-1" d="M164.77,212.45c19.88,20.05,25.29,44.27,22.72,71-2.22,23-28.62,39.22-50,35.39a23.44,23.44,0,0,1-8.53-3.95c-22.48-15.16-29.46-37.83-19.54-63.37,4.56-11.76,8.67-23.78,18.27-33-17.87-9.55-27.17-24.07-28.14-43.19-.93-18.28,8.93-40.5,36.74-39.41,12.73.5,25.57,10.62,30.64,25.09C173,178.31,173.14,195.58,164.77,212.45Zm3-25.63c0-13.79-2.75-25.06-9.19-34.08S143.63,138.25,132,139c-12.52.79-21.32,6.7-26.13,18.39a44.35,44.35,0,0,0,11.78,49.66,35.54,35.54,0,0,0,10.72,6.77c4.35,1.62,5.25,2.26,2.14,5.81-8.62,9.84-13.63,21.52-18.1,33.59-8.8,23.75-2.26,44.78,19,58.68a24.18,24.18,0,0,0,12,3.89c13.28.29,24.41-5.45,32.7-15.42A40.84,40.84,0,0,0,184,283.5c2.25-10.14,1.34-20.55-1.23-30.67-3.64-14.38-8.59-28.05-21.14-37.48-.77-.58-1-3.14-.35-4.13C166,203.4,167.54,194.85,167.79,186.82Z"/><path class="cls-1" d="M315.05,162.76q-1.57-33.67-3.14-67.34l2.84-.13,2.69,67.37Z"/><path class="cls-1" d="M342.49,158.28c2.49,18.48,1.71,37.1,2,55.67l-1.79.09-2.4-55.53Z"/><path class="cls-1" d="M369.71,261.74v-45.6l1.05,0v45.69Z"/><path class="cls-1" d="M52.21,114.47V103l1.17-.05.74,11.46Z"/><path class="cls-1" d="M77.47,326.44c1.11,5.13,2.22,10.26,3.44,15.88C76.83,340.24,75.73,335.78,77.47,326.44Z"/><path class="cls-1" d="M86.6,329.94l2.87,10-1.66.49c-3-2.76-2.12-6.71-2.66-10.23Z"/><path class="cls-1" d="M247,175.8c-.12,5-4.11,9.37-8.57,9.34-4.86,0-10.06-5.55-10.07-10.69,0-4.73,4.69-10.12,8.73-10C242.17,164.54,247.18,170.28,247,175.8Zm-2.61.74c-.85-4.73-4.58-9.23-7.58-8.19-2.12.74-4.32,3.43-5,5.69-.92,3.14,3.51,8.18,6.35,7.37C240.56,180.74,242.38,178.24,244.43,176.54Z"/><path class="cls-1" d="M147.57,280.14c-8.23,0-14-5.88-14-14.26-.05-7.87,7.25-15.61,14.61-15.48,5.29.1,11.92,10,11.87,17.83C160,275.54,155.14,280.16,147.57,280.14Zm.2-3.71c5.7-.09,8.65-3.12,8.5-8.74-.17-6.3-4.91-13.42-9-13.53-4.59-.12-10,6.36-9.91,12C137.4,272.39,141.58,276.51,147.77,276.43Z"/><path class="cls-1" d="M135.15,166.78c4.78.08,9,5.1,9,10.74,0,5.09-3.11,8.23-8,8.07-6.16-.2-10.69-4.6-10.57-10.25C125.69,170.16,129.59,166.68,135.15,166.78Zm5.37,11.95c-.06-5.42-2.84-8.67-6-8.34s-5.45,1.61-5.49,5.2a6.29,6.29,0,0,0,7.05,6C138,181.37,139.59,179.38,140.52,178.73Z"/></g></g></svg>